<?xml version="1.0" encoding="UTF-8" standalone="no"?>
<svg
   xmlns:dc="http://purl.org/dc/elements/1.1/"
   xmlns:cc="http://creativecommons.org/ns#"
   xmlns:rdf="http://www.w3.org/1999/02/22-rdf-syntax-ns#"
   xmlns:svg="http://www.w3.org/2000/svg"
   xmlns="http://www.w3.org/2000/svg"
   viewBox="0 0 909.62665 571.44"
   height="571.44"
   width="909.62665"
   xml:space="preserve"
   id="svg2"
   version="1.1"><metadata
     id="metadata8"><rdf:RDF><cc:Work
         rdf:about=""><dc:format>image/svg+xml</dc:format><dc:type
           rdf:resource="http://purl.org/dc/dcmitype/StillImage" /></cc:Work></rdf:RDF></metadata><defs
     id="defs6"><clipPath
       id="clipPath316"
       clipPathUnits="userSpaceOnUse"><path
         id="path314"
         d="m 1951.38,2409.1 v 0 l 1.63,32.8 -1.63,-32.8 m -879.79,36.9 c -3.18,0 -6.38,0.12 -9.59,0.37 l 9.1,9.06 c 4.14,20.52 8.29,41.09 12.78,61.57 l 3.63,-69.99 c -5.25,-0.66 -10.56,-1.01 -15.92,-1.01" /></clipPath></defs><g
     transform="matrix(1.3333333,0,0,-1.3333333,0,571.44)"
     id="g10"><g
       transform="scale(0.1)"
       id="g12"><path
         id="path14"
         style="fill:#e7e8e5;fill-opacity:1;fill-rule:nonzero;stroke:none"
         d="m 5270.83,450.742 c 27.56,11.559 47.16,39.988 47.32,73.469 0.18,43.871 -33.01,79.59 -74.16,79.781 -41.12,0.199 -74.62,-35.222 -74.8,-79.082 -0.14,-33.808 19.6,-62.57 47.46,-74.168 -114.62,-17.273 -109.42,-141.84 -109.42,-141.84 l 271.04,-1.25 c 0,0 6.18,125.93 -107.44,143.09" /><path
         id="path16"
         style="fill:#e7e8e5;fill-opacity:1;fill-rule:nonzero;stroke:none"
         d="m 466.625,3269.56 c 20.68,8.67 35.387,30 35.508,55.13 0.133,32.92 -24.778,59.72 -55.649,59.86 -30.855,0.15 -55.996,-26.42 -56.129,-59.34 -0.105,-25.37 14.708,-46.95 35.614,-55.65 -86.008,-12.96 -82.106,-106.43 -82.106,-106.43 l 203.383,-0.94 c 0,0 4.633,94.49 -80.621,107.37" /><path
         id="path18"
         style="fill:#f3f2f1;fill-opacity:1;fill-rule:nonzero;stroke:none"
         d="m 5299.97,3592.41 c 3.07,-137.12 -105.61,-250.77 -242.73,-253.83 -137.12,-3.05 -250.77,105.62 -253.83,242.74 -3.06,137.13 105.61,250.77 242.73,253.84 137.13,3.06 250.77,-105.63 253.83,-242.75" /><path
         id="path20"
         style="fill:#dadbd8;fill-opacity:1;fill-rule:nonzero;stroke:none"
         d="m 4999.25,3653.14 c -9.16,12.01 -26.73,12.33 -38.34,3.53 -11.6,-8.81 -16.94,-19.13 -19.01,-34.72 -2.79,15.49 -9.48,25.54 -21.56,33.82 -12.06,8.26 -29.74,7.16 -38.44,-5.24 -5.09,-7.27 -6.47,-17.22 -5.06,-26.35 1.4,-9.13 4.2,-18.57 9.97,-25.27 20.5,-23.84 31.48,-27.9 57.5,-44.59 25.05,17.83 33.11,22.32 52.38,47.05 5.41,6.94 7.78,16.5 8.77,25.69 0.99,9.18 -0.82,19.05 -6.21,26.08" /><path
         id="path22"
         style="fill:#dadbd8;fill-opacity:1;fill-rule:nonzero;stroke:none"
         d="m 5218.51,3658.05 c -9.17,11.99 -26.74,12.32 -38.34,3.51 -11.61,-8.79 -16.95,-19.12 -19.02,-34.71 -2.78,15.47 -9.47,25.53 -21.55,33.81 -12.07,8.28 -29.75,7.16 -38.44,-5.24 -5.1,-7.27 -6.47,-17.2 -5.07,-26.33 1.4,-9.13 4.21,-18.59 9.97,-25.27 20.5,-23.84 31.49,-27.92 57.5,-44.59 25.05,17.81 33.12,22.31 52.39,47.03 5.41,6.94 7.77,16.5 8.77,25.69 0.98,9.18 -0.82,19.06 -6.21,26.1" /><path
         id="path24"
         style="fill:#ffffff;fill-opacity:1;fill-rule:nonzero;stroke:none"
         d="m 5135.22,3530.39 c -2.94,-40.7 -40.5,-75.83 -81.3,-76.05 -40.79,-0.22 -78.74,34.49 -82.13,75.15 l 163.43,0.9" /><path
         id="path26"
         style="fill:#f3f2f1;fill-opacity:1;fill-rule:nonzero;stroke:none"
         d="m 6451.91,851.102 c 0,-140.473 -113.87,-254.34 -254.34,-254.34 -140.47,0 -254.34,113.867 -254.34,254.34 0,140.468 113.87,254.338 254.34,254.338 140.47,0 254.34,-113.87 254.34,-254.338" /><path
         id="path28"
         style="fill:#dadbd8;fill-opacity:1;fill-rule:nonzero;stroke:none"
         d="m 6113.18,924.07 c 9.65,0.59 18.18,-10.211 19.04,-24.148 0.86,-13.93 -6.27,-25.711 -15.92,-26.301 -9.66,-0.609 -18.17,10.211 -19.04,24.149 -0.86,13.921 6.28,25.71 15.92,26.3" /><path
         id="path30"
         style="fill:#dadbd8;fill-opacity:1;fill-rule:nonzero;stroke:none"
         d="m 6136.88,987.992 c -0.58,-3.66 -21.36,-2.551 -44.59,-10.832 -23.4,-7.82 -39.07,-21.531 -41.78,-19.012 -2.8,1.903 10.69,21.891 37.61,31.063 26.82,9.418 49.79,2 48.76,-1.219" /><path
         id="path32"
         style="fill:#dadbd8;fill-opacity:1;fill-rule:nonzero;stroke:none"
         d="m 6321.25,884.371 c -2.73,-2.269 -16.4,12.461 -38.32,14.688 -21.9,2.492 -38.39,-9 -40.57,-6.188 -1.11,1.231 1.58,6.141 8.86,11.09 7.13,4.91 19.32,9.258 33.08,7.789 13.76,-1.488 24.74,-8.348 30.66,-14.66 6.07,-6.379 7.63,-11.758 6.29,-12.719" /><path
         id="path34"
         style="fill:#dadbd8;fill-opacity:1;fill-rule:nonzero;stroke:none"
         d="m 6343.1,926.852 c -1.98,-3.153 -22.6,7.679 -50.11,8.488 -27.5,1.39 -48.92,-7.758 -50.63,-4.449 -2.13,2.64 19.56,18.609 51.15,17.199 31.57,-1.121 51.91,-18.789 49.59,-21.238" /><path
         id="path36"
         style="fill:#dadbd8;fill-opacity:1;fill-rule:nonzero;stroke:none"
         d="m 6325.1,856.16 c 1.13,0.141 1.42,-21.07 -15.94,-48.89 -16.41,-27.098 -54.68,-59.961 -106.21,-62.028 -51.57,-1.172 -91.83,29.227 -109.89,55.258 -19.09,26.68 -20.12,47.852 -18.98,47.789 2.25,0.77 6.51,-18.848 26.09,-42.238 18.66,-23.012 56.4,-49.172 102.38,-48.059 45.95,1.778 81.97,30.238 99.16,54.387 18.08,24.57 21.1,44.41 23.39,43.781" /><path
         id="path38"
         style="fill:#f3f2f1;fill-opacity:1;fill-rule:nonzero;stroke:none"
         d="M 504.824,2342.86 C 507.695,2203.47 397.031,2088.15 257.641,2085.27 118.258,2082.4 2.92578,2193.06 0.0546875,2332.45 -2.82031,2471.84 107.852,2587.17 247.234,2590.04 c 139.391,2.88 254.715,-107.79 257.59,-247.18" /><path
         id="path40"
         style="fill:#dadbd8;fill-opacity:1;fill-rule:nonzero;stroke:none"
         d="m 165.348,2401.26 c 9.562,0.79 18.242,-9.77 19.382,-23.58 1.137,-13.81 -5.691,-25.64 -15.257,-26.43 -9.571,-0.79 -18.246,9.77 -19.383,23.57 -1.141,13.82 5.691,25.65 15.258,26.44" /><path
         id="path42"
         style="fill:#dadbd8;fill-opacity:1;fill-rule:nonzero;stroke:none"
         d="m 187.551,2465.17 c -0.184,-2.18 -21.321,-0.17 -44.961,-9.11 -23.801,-8.56 -38.57,-23.8 -40.129,-22.26 -1.625,0.91 11.836,19.71 37.617,29.06 25.68,9.62 48.125,4.06 47.473,2.31" /><path
         id="path44"
         style="fill:#dadbd8;fill-opacity:1;fill-rule:nonzero;stroke:none"
         d="m 325.84,2404.56 c -9.59,0.4 -17.82,-10.5 -18.395,-24.35 -0.566,-13.84 6.75,-25.39 16.344,-25.78 9.59,-0.39 17.828,10.52 18.395,24.36 0.566,13.84 -6.75,25.39 -16.344,25.77" /><path
         id="path46"
         style="fill:#dadbd8;fill-opacity:1;fill-rule:nonzero;stroke:none"
         d="m 301.023,2467.52 c -0.718,1.71 21.481,8.19 47.528,-0.37 26.144,-8.28 40.371,-26.5 38.785,-27.48 -1.492,-1.6 -16.875,13.03 -41.008,20.58 -24,7.97 -45.027,5.1 -45.305,7.27" /><path
         id="path48"
         style="fill:#dadbd8;fill-opacity:1;fill-rule:nonzero;stroke:none"
         d="m 376.977,2340.23 c 0.39,-0.05 0.191,-4.94 -1.75,-13.53 -1.907,-8.58 -6.332,-20.76 -14.668,-34.26 -8.278,-13.49 -21.071,-27.94 -38.493,-39.83 -17.308,-11.91 -39.648,-20.76 -64.16,-22.25 -24.539,-1.07 -47.691,5.42 -66.136,15.47 -18.567,10.02 -32.793,23.06 -42.422,35.63 -9.692,12.56 -15.36,24.2 -18.137,32.55 -2.828,8.34 -3.531,13.18 -3.152,13.26 1.496,0.66 5.441,-19.06 25.261,-42.57 9.75,-11.68 23.719,-23.73 41.559,-32.96 17.742,-9.25 39.644,-15.13 62.648,-14.14 22.977,1.41 44.145,9.52 60.828,20.56 16.778,11.03 29.418,24.46 37.911,37.09 17.273,25.44 19.16,45.47 20.711,44.98" /><path
         id="path50"
         style="fill:#dadbd8;fill-opacity:1;fill-rule:nonzero;stroke:none"
         d="m 2429.47,1999.94 c -12.45,14.9 -35.04,14.34 -49.45,2.39 -14.41,-11.95 -20.69,-25.52 -22.49,-45.66 -4.43,19.73 -13.6,32.28 -29.57,42.23 -15.96,9.96 -38.6,7.55 -49.08,-8.86 -6.15,-9.61 -7.37,-22.47 -5.05,-34.12 2.31,-11.65 6.44,-23.63 14.21,-31.9 27.67,-29.48 42,-34.1 76.34,-54.07 31.19,24.27 41.3,30.49 64.68,63.33 6.57,9.22 9.07,21.63 9.83,33.48 0.76,11.86 -2.11,24.44 -9.42,33.18" /><path
         id="path52"
         style="fill:#dadbd8;fill-opacity:1;fill-rule:nonzero;stroke:none"
         d="m 6077.42,3933.86 c -12.45,14.9 -35.04,14.34 -49.45,2.39 -14.42,-11.95 -20.68,-25.51 -22.48,-45.66 -4.45,19.74 -13.61,32.28 -29.57,42.24 -15.97,9.96 -38.61,7.55 -49.09,-8.86 -6.16,-9.62 -7.37,-22.47 -5.05,-34.13 2.31,-11.64 6.44,-23.63 14.22,-31.9 27.66,-29.48 41.99,-34.1 76.33,-54.07 31.2,24.27 41.3,30.5 64.68,63.33 6.56,9.22 9.07,21.63 9.84,33.49 0.75,11.85 -2.12,24.43 -9.43,33.17" /><path
         id="path54"
         style="fill:#e7e8e5;fill-opacity:1;fill-rule:nonzero;stroke:none"
         d="m 5091.36,1142.18 c -12.45,14.91 -35.04,14.35 -49.46,2.4 -14.41,-11.96 -20.68,-25.52 -22.48,-45.67 -4.44,19.74 -13.6,32.29 -29.57,42.24 -15.96,9.96 -38.6,7.55 -49.09,-8.86 -6.14,-9.62 -7.36,-22.47 -5.05,-34.12 2.32,-11.65 6.45,-23.63 14.22,-31.9 27.67,-29.49 41.99,-34.11 76.34,-54.08 31.19,24.28 41.3,30.5 64.68,63.33 6.56,9.22 9.07,21.63 9.83,33.49 0.75,11.85 -2.12,24.43 -9.42,33.17" /><path
         id="path56"
         style="fill:#dadbd8;fill-opacity:1;fill-rule:nonzero;stroke:none"
         d="m 5795.83,2922.28 c -252.89,0 -476.56,-124.55 -613.46,-315.54 l -268.1,-37.97 150.42,-214.27 c -15.2,-59.71 -23.32,-122.24 -23.32,-186.68 0,-416.68 337.78,-754.47 754.46,-754.47 416.68,0 754.46,337.79 754.46,754.47 0,416.68 -337.78,754.46 -754.46,754.46" /><path
         id="path58"
         style="fill:#17282f;fill-opacity:1;fill-rule:nonzero;stroke:none"
         d="m 5657.31,3235.88 c 110.58,145.62 227.14,125.05 308.05,89.86 80.9,-35.19 135.22,-123.84 129.84,-211.9 -1.42,-23.25 -6.39,-47.74 3.07,-69.03 15.22,-34.25 59.47,-43.89 85.11,-71.23 35.05,-37.38 27.27,-96.56 15.44,-146.42 -11.84,-49.85 -24.3,-106.76 5.02,-148.79 26.85,-38.49 78.05,-48.81 120.27,-69.31 55.78,-27.08 100.65,-77.62 116.84,-137.48 16.19,-59.86 1.93,-128.04 -40,-173.72 -41.05,-44.72 -102.69,-64.55 -162.74,-73.39 -174.73,-25.74 -359.82,30.64 -490.53,149.43 -130.72,118.78 -204.5,297.64 -195.54,474.04" /><path
         id="path60"
         style="fill:#33535f;fill-opacity:1;fill-rule:nonzero;stroke:none"
         d="m 6337.8,2282.92 c -0.33,0.35 3.8,3.6 10.01,11.22 6.19,7.54 14.6,19.72 19.68,37.65 5.06,17.82 6.18,41.11 0.59,66.95 -5.18,25.82 -18.46,53.83 -41.1,78.15 -11.28,12.11 -24.65,23.44 -40.01,32.98 -15.25,9.72 -32.7,17.15 -50.93,24.64 -18.21,7.55 -37.47,15.11 -55.73,26.39 -18.27,11.27 -34.73,26.58 -48.19,44.72 -27.3,36.26 -41.63,83.72 -42.74,132.53 -0.65,24.45 1.67,49.37 6.28,74.07 4.52,24.71 10.79,49.29 15.56,74.31 3.26,17.69 6.32,35.62 6.11,52.86 -0.43,17.36 -5.17,34.11 -11.63,50.12 -6.41,16.06 -13.96,31.65 -20.01,47.89 -5.87,16.62 -8.45,33.51 -10.42,50.12 -2.01,16.68 -2.01,33.15 -3.89,48.78 -1.62,15.8 -4.85,31.12 -8.89,45.87 -8.19,29.36 -20.61,56.88 -37.05,79.05 l -0.2,0.26 -0.03,0.07 c -27.66,43.74 -73.22,67.94 -114.24,73.66 -41.65,6.19 -78.42,-6.25 -103.82,-21.7 -25.88,-15.57 -41.57,-34.11 -50.83,-47.19 -9.21,-13.28 -12.61,-21.31 -13.11,-21.07 0,0 2.73,8.34 11.55,22.13 8.87,13.57 24.36,32.83 50.51,49.19 25.63,16.22 63.28,29.58 106.39,23.64 42.4,-5.5 89.67,-29.98 118.79,-75.38 l -0.24,0.33 c 17.55,-23.36 30.08,-51.05 38.71,-81.18 4.2,-15.07 7.54,-30.74 9.27,-46.88 2.01,-16.26 2.03,-32.55 4.07,-48.79 1.94,-16.26 4.6,-32.88 10.15,-48.45 5.89,-15.73 13.45,-31.29 20.02,-47.67 6.62,-16.34 11.75,-34.14 12.2,-52.6 0.21,-18.54 -2.92,-36.41 -6.22,-54.43 -4.85,-25.32 -11.11,-49.86 -15.58,-74.26 -4.58,-24.34 -6.86,-48.67 -6.29,-72.55 1.01,-47.68 14.8,-93.6 41,-128.72 12.92,-17.57 28.67,-32.34 46.17,-43.27 17.55,-10.97 36.47,-18.58 54.65,-26.25 18.2,-7.62 35.98,-15.32 51.63,-25.46 15.71,-9.94 29.34,-21.7 40.81,-34.27 23.01,-25.18 36.38,-54.31 41.28,-80.81 5.34,-26.48 3.77,-50.41 -1.87,-68.58 -5.63,-18.29 -14.64,-30.48 -21.27,-37.81 -6.67,-7.42 -11.14,-10.26 -11.14,-10.26" /><path
         id="path62"
         style="fill:#fafaf9;fill-opacity:1;fill-rule:nonzero;stroke:none"
         d="m 5933.38,2453.88 c -0.95,1.08 10.41,12.53 25.36,25.56 14.95,13.04 27.84,22.73 28.79,21.64 0.95,-1.08 -10.41,-12.52 -25.37,-25.56 -14.95,-13.03 -27.84,-22.73 -28.78,-21.64" /><path
         id="path64"
         style="fill:#f03d5f;fill-opacity:1;fill-rule:nonzero;stroke:none"
         d="m 5897.14,2540.3 -333.37,-40.6 c 0,0 -268.24,-48.76 -322.17,-249.67 -37.24,-138.74 -114.31,-397.16 -158.45,-543.8 -19.04,-63.27 9.61,-131.09 68.24,-161.56 70.69,-36.75 157.72,-5.89 189.48,67.18 l 145.8,335.51 c 0,0 51.39,-117.19 48.43,-172.62 -2.95,-55.43 -118.73,-259.13 -118.73,-259.13 246.24,-141.2 496.45,-123.39 691.08,-35.1 l -9.29,530.26 c 0,0 91.63,-473.11 277.2,-437.09 155.58,30.19 53.14,333.42 0,449.38 -67.76,147.89 -156.18,358.89 -211.84,409.76 -149.21,136.37 -266.38,107.48 -266.38,107.48" /><path
         id="path66"
         style="fill:#a7aaa9;fill-opacity:1;fill-rule:nonzero;stroke:none"
         d="m 5362.24,2413.82 c 1.15,2.26 2.55,4.43 4.2,6.46 9.19,11.26 23.56,16.27 37.81,20.01 -14.08,-7.86 -28.21,-16.65 -42.01,-26.47" /><path
         id="path68"
         style="fill:#da314b;fill-opacity:1;fill-rule:nonzero;stroke:none"
         d="m 5418.02,2342.35 c -13.98,0 -27.7,3.54 -39.02,11.67 -18.31,13.18 -26.67,40.27 -16.76,59.8 13.8,9.82 27.93,18.61 42.01,26.47 2.08,0.55 4.16,1.07 6.22,1.58 53.98,13.31 107.97,26.62 161.95,39.92 l 16.91,-8.84 c -20.16,-31.46 -47.92,-57.21 -75.97,-81.89 -18.91,-16.65 -38.58,-33.27 -62.08,-42.34 -10.5,-4.06 -21.96,-6.37 -33.26,-6.37" /><path
         id="path70"
         style="fill:#17282f;fill-opacity:1;fill-rule:nonzero;stroke:none"
         d="m 5164.24,1854.99 c -0.95,0.86 17.45,16.8 45.87,23.95 28.37,7.42 52.15,2.3 51.74,1.09 -0.11,-1.62 -23.26,1.01 -50.44,-6.14 -27.27,-6.81 -46.29,-20.26 -47.17,-18.9" /><path
         id="path72"
         style="fill:#17282f;fill-opacity:1;fill-rule:nonzero;stroke:none"
         d="m 5208.24,1900.97 c -0.72,1.11 14.84,9.02 35.5,6.93 20.69,-1.89 34.46,-12.6 33.54,-13.56 -0.77,-1.38 -14.79,6.67 -34.04,8.37 -9.94,1.03 -18.83,0.13 -25.17,-0.78 -5.91,-0.84 -9.59,-1.68 -9.83,-0.96" /><path
         id="path74"
         style="fill:#da314b;fill-opacity:1;fill-rule:nonzero;stroke:none"
         d="m 5168.17,1863.59 c -1.55,0 -3.06,0.36 -4.5,1.2 -5.59,3.29 -5.26,11.74 -2.17,17.44 7.39,13.6 24.26,18.73 39.65,20.33 3.46,0.37 6.94,0.61 10.42,0.74 -2.34,-1.08 -3.54,-2 -3.33,-2.33 0.06,-0.19 0.37,-0.27 0.9,-0.27 1.46,0 4.6,0.62 8.93,1.23 3.01,0.43 6.59,0.86 10.58,1.08 18.65,-1.31 37.08,-5.89 54.13,-13.56 l -8.33,-13.24 c -12.49,6.22 -26.44,9.28 -40.39,9.28 -18.36,0 -36.75,-5.3 -51.91,-15.68 -4.21,-2.88 -9.26,-6.22 -13.98,-6.22" /><path
         id="path76"
         style="fill:#111d23;fill-opacity:1;fill-rule:nonzero;stroke:none"
         d="m 5209.14,1900.7 c -0.53,0 -0.84,0.08 -0.9,0.27 -0.21,0.33 0.99,1.25 3.33,2.33 1.96,0.07 3.92,0.11 5.88,0.11 3.73,0 7.47,-0.13 11.2,-0.4 -3.99,-0.22 -7.57,-0.65 -10.58,-1.08 -4.33,-0.61 -7.47,-1.23 -8.93,-1.23" /><path
         id="path78"
         style="fill:#a7aaa9;fill-opacity:1;fill-rule:nonzero;stroke:none"
         d="m 5489.4,1658.42 c 18.24,34.64 33.08,70.77 44.32,108.51 4.94,34.61 -9.8,67.22 -9.8,67.22 0.45,1.38 0.96,2.78 1.52,4.2 6.32,-23.58 10.57,-46.52 9.66,-63.61 -1.18,-22.09 -20.29,-67.76 -42.84,-114.68 -0.95,-0.55 -1.9,-1.09 -2.86,-1.64" /><path
         id="path80"
         style="fill:#da314b;fill-opacity:1;fill-rule:nonzero;stroke:none"
         d="m 5492.26,1660.06 c 22.55,46.92 41.66,92.59 42.84,114.68 0.91,17.09 -3.34,40.03 -9.66,63.61 13.83,34.76 60.93,80.63 82.98,108.51 27.5,34.76 55.24,69.77 89.11,98.36 33.87,28.59 74.71,50.67 118.8,55.11 -17.55,-35.36 -68.05,-57.5 -91.69,-96.07 -19.95,-32.56 -27.39,-70.96 -39.42,-107.21 -32.77,-98.85 -102.82,-184.83 -192.96,-236.99" /><path
         id="path82"
         style="fill:#fafaf9;fill-opacity:1;fill-rule:nonzero;stroke:none"
         d="m 5958.16,1729.4 c -1.24,0.72 10.94,24.17 27.2,52.38 16.27,28.22 30.46,50.5 31.71,49.78 1.24,-0.72 -10.93,-24.16 -27.2,-52.38 -16.26,-28.21 -30.46,-50.49 -31.71,-49.78" /><path
         id="path84"
         style="fill:#17282f;fill-opacity:1;fill-rule:nonzero;stroke:none"
         d="m 6228.53,1870.64 c 0.72,-0.06 0.4,-10.98 -0.65,-28.56 -0.9,-17.57 -2.88,-41.84 -1.78,-68.47 1.9,-53.7 22.7,-93.4 20.68,-94 -0.33,-0.15 -1.73,2.21 -3.98,6.62 -2.34,4.37 -5.18,10.96 -8.38,19.24 -6.26,16.57 -12.4,40.73 -13.52,67.9 -1.12,27.14 1.48,51.51 3.32,69.02 1.98,17.53 3.59,28.31 4.31,28.25" /><path
         id="path86"
         style="fill:#fafaf9;fill-opacity:1;fill-rule:nonzero;stroke:none"
         d="m 5776.43,1645.39 c 0.98,0.95 18.18,-15.61 35.46,-39.33 17.37,-23.68 27.92,-45.09 26.72,-45.73 -1.32,-0.74 -13.77,19.27 -30.92,42.65 -17.07,23.44 -32.37,41.38 -31.26,42.41" /><path
         id="path88"
         style="fill:#fafaf9;fill-opacity:1;fill-rule:nonzero;stroke:none"
         d="m 5946.22,1606.64 c 0.64,1.29 17.2,-5.65 36.98,-15.49 19.8,-9.85 35.33,-18.87 34.68,-20.16 -0.64,-1.29 -17.2,5.65 -36.99,15.5 -19.79,9.84 -35.31,18.87 -34.67,20.15" /><path
         id="path90"
         style="fill:#fafaf9;fill-opacity:1;fill-rule:nonzero;stroke:none"
         d="m 5834.55,1767.1 c -0.88,-1.05 -15.32,9.7 -29.78,26.42 -14.54,16.68 -23.15,32.5 -21.98,33.21 1.27,0.81 11.66,-13.45 25.9,-29.79 14.17,-16.4 26.85,-28.69 25.86,-29.84" /><path
         id="path92"
         style="fill:#fafaf9;fill-opacity:1;fill-rule:nonzero;stroke:none"
         d="m 5627.55,1630.09 c -0.9,1.23 14.08,13.28 30.59,30.1 16.61,16.75 28.44,31.89 29.68,31.01 1.14,-0.75 -9.01,-17.55 -25.97,-34.66 -16.88,-17.19 -33.55,-27.57 -34.3,-26.45" /><path
         id="path94"
         style="fill:#fafaf9;fill-opacity:1;fill-rule:nonzero;stroke:none"
         d="m 5518.29,1574.15 c 0.97,1.06 14.34,-9.52 29.86,-23.63 15.53,-14.12 27.34,-26.41 26.37,-27.48 -0.97,-1.06 -14.33,9.51 -29.87,23.63 -15.52,14.11 -27.33,26.41 -26.36,27.48" /><path
         id="path96"
         style="fill:#fafaf9;fill-opacity:1;fill-rule:nonzero;stroke:none"
         d="m 5725.35,1957.7 c -0.75,1.22 16,12.9 37.41,26.07 21.43,13.18 39.41,22.87 40.16,21.65 0.75,-1.23 -16,-12.9 -37.42,-26.09 -21.42,-13.17 -39.4,-22.86 -40.15,-21.63" /><path
         id="path98"
         style="fill:#fafaf9;fill-opacity:1;fill-rule:nonzero;stroke:none"
         d="m 5902.66,2019.91 c 1.3,0.62 10.9,-16.63 21.47,-38.54 10.57,-21.9 18.08,-40.16 16.78,-40.79 -1.3,-0.62 -10.91,16.62 -21.48,38.54 -10.55,21.89 -18.06,40.16 -16.77,40.79" /><path
         id="path100"
         style="fill:#fafaf9;fill-opacity:1;fill-rule:nonzero;stroke:none"
         d="m 6024.16,2046.28 c -1.23,0.74 7.29,17.27 19.01,36.91 11.74,19.66 22.25,34.98 23.49,34.25 1.23,-0.74 -7.28,-17.27 -19.01,-36.92 -11.74,-19.65 -22.25,-34.98 -23.49,-34.24" /><path
         id="path102"
         style="fill:#fafaf9;fill-opacity:1;fill-rule:nonzero;stroke:none"
         d="m 5882.43,2169.16 c 0.68,1.39 17.46,-6.01 39.28,-11.08 21.8,-5.23 40.12,-6.12 40.1,-7.66 0.07,-1.34 -18.8,-2.79 -41.29,2.59 -22.52,5.25 -38.76,14.99 -38.09,16.15" /><path
         id="path104"
         style="fill:#fafaf9;fill-opacity:1;fill-rule:nonzero;stroke:none"
         d="m 5966,2308.03 c -1.44,-0.09 -3.78,16.75 -5.25,37.63 -1.46,20.89 -1.48,37.89 -0.05,37.99 1.43,0.11 3.78,-16.74 5.25,-37.62 1.46,-20.88 1.48,-37.89 0.05,-38" /><path
         id="path106"
         style="fill:#fafaf9;fill-opacity:1;fill-rule:nonzero;stroke:none"
         d="m 6152.38,2029.73 c -1.34,0.52 4.71,19.62 13.52,42.68 8.81,23.06 17.03,41.34 18.38,40.82 1.34,-0.51 -4.71,-19.61 -13.52,-42.68 -8.8,-23.05 -17.03,-41.33 -18.38,-40.82" /><path
         id="path108"
         style="fill:#fafaf9;fill-opacity:1;fill-rule:nonzero;stroke:none"
         d="m 6179.13,1928.49 c 1.12,0.73 11.74,-14.48 19.34,-35.89 7.69,-21.38 9.13,-39.87 7.78,-40.02 -1.5,-0.24 -5.19,17.44 -12.69,38.27 -7.39,20.85 -15.75,36.87 -14.43,37.64" /><path
         id="path110"
         style="fill:#fafaf9;fill-opacity:1;fill-rule:nonzero;stroke:none"
         d="m 5563.33,2296.88 c 0.75,1.22 16.19,-6.92 34.48,-18.18 18.29,-11.27 32.5,-21.39 31.75,-22.62 -0.76,-1.22 -16.19,6.91 -34.48,18.18 -18.29,11.26 -32.5,21.39 -31.75,22.62" /><path
         id="path112"
         style="fill:#fafaf9;fill-opacity:1;fill-rule:nonzero;stroke:none"
         d="m 5466.63,2133.01 c -1.04,1.16 12.82,14.51 26.43,33.68 13.73,19.1 21.86,36.54 23.29,35.93 1.25,-0.43 -4.91,-19.27 -19.06,-38.95 -14.03,-19.76 -29.85,-31.71 -30.66,-30.66" /><path
         id="path114"
         style="fill:#fafaf9;fill-opacity:1;fill-rule:nonzero;stroke:none"
         d="m 5322.68,2126.1 c 0.84,1.1 17.54,-10.52 35.55,-27.88 18.07,-17.33 30.32,-33.56 29.26,-34.45 -1.12,-0.96 -15.01,13.57 -32.86,30.69 -17.8,17.17 -32.88,30.47 -31.95,31.64" /><path
         id="path116"
         style="fill:#fafaf9;fill-opacity:1;fill-rule:nonzero;stroke:none"
         d="m 5357.21,2266.3 c -1,1.03 14.71,17.85 35.09,37.55 20.39,19.71 37.72,34.84 38.72,33.81 1,-1.04 -14.71,-17.85 -35.1,-37.56 -20.38,-19.69 -37.72,-34.83 -38.71,-33.8" /><path
         id="path118"
         style="fill:#fafaf9;fill-opacity:1;fill-rule:nonzero;stroke:none"
         d="m 5268.14,1999.9 c -1.36,-0.43 -8.33,17.9 -15.53,40.94 -7.22,23.04 -11.96,42.07 -10.58,42.5 1.37,0.43 8.33,-17.9 15.54,-40.95 7.22,-23.04 11.95,-42.06 10.57,-42.49" /><path
         id="path120"
         style="fill:#fafaf9;fill-opacity:1;fill-rule:nonzero;stroke:none"
         d="m 5337.03,1914.29 c -1.43,0.13 -0.65,21.15 1.74,46.94 2.38,25.8 5.49,46.6 6.91,46.46 1.44,-0.13 0.66,-21.14 -1.73,-46.94 -2.39,-25.79 -5.49,-46.59 -6.92,-46.46" /><path
         id="path122"
         style="fill:#c0776a;fill-opacity:1;fill-rule:nonzero;stroke:none"
         d="m 5835.17,2308.14 c -21.31,15.12 -47.9,20.84 -73.57,15.84 -24.18,-4.71 -45.59,-18.58 -59.75,-38.7 l -86.98,-123.61 -471.66,-376.16 c -73.28,-58.43 -66.33,-171.88 13.52,-220.95 55.96,-34.39 128.53,-23.61 172.07,25.57 l 384.99,434.86 49.7,38.31 58.48,42.42 13.29,127.26 c 0,0 35.14,-15.56 62.58,-28.14 43.31,-19.85 57.76,16.24 57.76,16.24 l -120.43,87.06" /><path
         id="path124"
         style="fill:#b85549;fill-opacity:1;fill-rule:nonzero;stroke:none"
         d="m 5835.87,2226.39 c -0.64,-0.43 -3.43,2.94 -8.06,8 -4.62,4.97 -11.38,11.84 -20.76,15.12 -9.22,3.12 -18.77,0.45 -23.82,-3.27 -5.27,-3.77 -6.43,-8.18 -7.27,-7.89 -0.53,-0.07 -0.75,5.28 4.92,10.72 5.42,5.24 16.52,9.16 27.87,5.36 10.99,-3.9 17.89,-12.02 21.93,-17.73 4.08,-5.87 5.75,-9.95 5.19,-10.31" /><path
         id="path126"
         style="fill:#b85549;fill-opacity:1;fill-rule:nonzero;stroke:none"
         d="m 5774,2192.41 c -0.49,0.4 1.21,3.78 5.9,7.54 4.6,3.74 12.56,7.53 21.96,7.5 9.39,-0.05 17.32,-3.89 21.89,-7.67 4.67,-3.8 6.34,-7.2 5.84,-7.59 -0.6,-0.52 -3.19,1.87 -7.92,4.55 -4.67,2.68 -11.76,5.46 -19.83,5.5 -8.08,0.02 -15.2,-2.69 -19.89,-5.35 -4.74,-2.63 -7.36,-5 -7.95,-4.48" /><path
         id="path128"
         style="fill:#c0776a;fill-opacity:1;fill-rule:nonzero;stroke:none"
         d="m 6176.85,2333.39 33.07,-35.82 c 0,0 11.03,-507.08 30.31,-575.97 19.29,-68.9 132.28,-184.64 192.91,-90.95 60.63,93.7 -90.94,691.72 -90.94,691.72 0,0 -41.34,137.79 -44.09,170.86 l -121.26,-159.84" /><path
         id="path130"
         style="fill:#33535f;fill-opacity:1;fill-rule:nonzero;stroke:none"
         d="m 6252.74,2627.09 -13.03,-350.3 c -0.93,-25.01 -14.64,-47.8 -36.31,-60.33 l -105.5,-61.02 c -29.12,-16.85 -65.56,4.16 -65.56,37.81 v 324.35 c 0,18.4 9.98,35.36 26.09,44.29 l 157.9,87.56 c 16.71,9.27 37.12,-3.27 36.41,-22.36" /><path
         id="path132"
         style="fill:#fafaf9;fill-opacity:1;fill-rule:nonzero;stroke:none"
         d="m 6131.43,2534.74 c -5.7,-11.58 -0.92,-25.57 10.66,-31.26 11.57,-5.69 25.58,-0.92 31.26,10.66 5.69,11.58 0.92,25.58 -10.66,31.27 -11.58,5.68 -25.58,0.91 -31.26,-10.67" /><path
         id="path134"
         style="fill:#c0776a;fill-opacity:1;fill-rule:nonzero;stroke:none"
         d="m 6298.11,2493.23 c 0,0 -78.13,108.24 -95.46,107.33 -17.33,-0.92 -101.26,-51.09 -97.61,-62.04 3.65,-10.95 20.99,-17.33 36.49,-10.03 15.51,7.3 42.87,33.75 49.26,28.28 6.39,-5.48 24.63,-24.63 24.63,-24.63 0,0 -77.14,-39.38 -83.02,-54.74 -5.99,-15.71 -20.07,-42.87 -1.81,-52.91 11.87,-6.53 31.01,0.92 38.31,31.93 0,0 -14.6,-44.7 7.95,-55.65 24.27,-11.78 31.72,13.01 51.34,37.4 16.5,20.51 23.91,-5.58 23.91,-5.58 l 46.01,60.64" /><path
         id="path136"
         style="fill:#b85549;fill-opacity:1;fill-rule:nonzero;stroke:none"
         d="m 6238.96,2492.3 c -0.11,-0.81 -5.64,-0.31 -14.29,-1.38 -8.61,-1.03 -20.45,-4.12 -31.47,-11.31 -11.01,-7.19 -18.62,-16.78 -23.01,-24.24 -4.48,-7.49 -6.24,-12.76 -7.03,-12.53 -0.59,0.13 -0.09,5.88 3.76,14.25 3.78,8.31 11.5,19.1 23.44,26.89 11.93,7.79 24.91,10.5 34.03,10.61 9.22,0.16 14.68,-1.69 14.57,-2.29" /><path
         id="path138"
         style="fill:#c0776a;fill-opacity:1;fill-rule:nonzero;stroke:none"
         d="m 5581.04,3203.98 0.08,-45.14 -2.94,-675.61 c -0.34,-78.43 66.83,-141.19 150.81,-140.92 84.82,0.28 154.86,64.69 156.51,143.91 1.74,83.16 5.09,170.67 5.09,170.67 0,0 107.44,15.88 132.12,155.26 12.27,69.32 10.81,183.35 6.59,276.62 -3.79,83.95 -76.64,147.85 -160.35,140.49 l -287.91,-25.28" /><path
         id="path140"
         style="fill:#17282f;fill-opacity:1;fill-rule:nonzero;stroke:none"
         d="m 5996.45,3003.74 c 0.16,-9.48 -7.72,-17.43 -17.61,-17.78 -9.87,-0.36 -18.02,7.01 -18.19,16.49 -0.16,9.47 7.72,17.43 17.58,17.78 9.9,0.36 18.05,-7.02 18.22,-16.49" /><path
         id="path142"
         style="fill:#17282f;fill-opacity:1;fill-rule:nonzero;stroke:none"
         d="m 6003.53,3029.92 c -2.27,-2.3 -15.68,7.99 -34.97,8.28 -19.26,0.57 -33.59,-9.1 -35.64,-6.7 -1.02,1.06 1.33,5.24 7.57,9.62 6.15,4.36 16.57,8.52 28.59,8.26 12.01,-0.28 22.04,-4.89 27.77,-9.52 5.86,-4.65 7.79,-8.92 6.68,-9.94" /><path
         id="path144"
         style="fill:#17282f;fill-opacity:1;fill-rule:nonzero;stroke:none"
         d="m 5813.73,3006.98 c 0.17,-9.47 -7.72,-17.42 -17.61,-17.78 -9.87,-0.35 -18.02,7.02 -18.19,16.49 -0.17,9.48 7.72,17.44 17.59,17.79 9.89,0.36 18.04,-7.02 18.21,-16.5" /><path
         id="path146"
         style="fill:#17282f;fill-opacity:1;fill-rule:nonzero;stroke:none"
         d="m 5813.85,3029.69 c -2.27,-2.3 -15.69,7.99 -34.96,8.28 -19.26,0.57 -33.6,-9.1 -35.66,-6.7 -0.99,1.06 1.32,5.24 7.59,9.62 6.14,4.36 16.56,8.52 28.58,8.26 12.02,-0.28 22.05,-4.89 27.78,-9.52 5.83,-4.65 7.77,-8.92 6.67,-9.94" /><path
         id="path148"
         style="fill:#17282f;fill-opacity:1;fill-rule:nonzero;stroke:none"
         d="m 5881.31,2885.39 c -0.07,1.1 11.96,2.96 31.43,5.09 4.94,0.42 9.61,1.32 10.5,4.67 1.23,3.54 -0.74,8.88 -3.03,14.66 -4.41,12 -9.04,24.58 -13.89,37.76 -19.28,53.76 -33.15,97.93 -30.98,98.69 2.18,0.76 19.57,-42.2 38.85,-95.96 4.63,-13.26 9.06,-25.89 13.28,-37.99 1.77,-5.62 4.85,-12.03 2.22,-19.37 -1.4,-3.66 -5.06,-6.26 -8.23,-7.06 -3.18,-0.9 -5.95,-0.91 -8.39,-1.01 -19.57,-0.7 -31.7,-0.58 -31.76,0.52" /><path
         id="path150"
         style="fill:#b85549;fill-opacity:1;fill-rule:nonzero;stroke:none"
         d="m 5890.59,2656.89 c 0,0 -94.15,-4.39 -186.31,53.26 0,0 43.71,-96.82 183.83,-86.23 l 2.48,32.97" /><path
         id="path152"
         style="fill:#b85549;fill-opacity:1;fill-rule:nonzero;stroke:none"
         d="m 5872.33,2839.05 c -6.77,9.29 -18.83,14.54 -30.93,13.46 -8.39,-0.75 -16.92,-4.64 -22.12,-11.37 -5.21,-6.72 -6.45,-16.38 -1.95,-22.96 5.08,-7.41 15.93,-9.3 25.18,-6.85 9.26,2.46 17.28,8.38 24.92,14.28 2.11,1.64 4.27,3.34 5.61,5.61 1.34,2.26 1.67,5.26 0.09,7.18" /><path
         id="path154"
         style="fill:#17282f;fill-opacity:1;fill-rule:nonzero;stroke:none"
         d="m 5824.31,2873.05 c 3.14,0.13 2.81,-20.81 20.47,-35.99 17.61,-15.22 39.98,-13.27 40.09,-16.2 0.27,-1.32 -5.05,-3.98 -14.47,-4.07 -9.25,-0.15 -22.69,3.06 -33.49,12.34 -10.77,9.31 -15.26,21.55 -15.82,30.16 -0.64,8.77 1.79,13.91 3.22,13.76" /><path
         id="path156"
         style="fill:#17282f;fill-opacity:1;fill-rule:nonzero;stroke:none"
         d="m 5412.61,2416.17 c 115.16,-9.06 216.6,73.1 233.84,187.33 1.79,11.91 3.84,21.63 6.39,28.01 16.23,40.58 16.49,86.52 5.28,128.76 -5.19,19.56 -12.62,40.98 -3.74,59.15 6.45,13.2 19.98,21.09 31.04,30.75 24.89,21.72 38.49,54.51 41.25,87.43 2.75,32.92 -4.51,66.02 -16.03,96.99 -6.32,17.04 -14.03,35.71 -7.6,52.72 4.55,12.03 15.25,20.41 24.81,29.01 20.21,18.2 37.12,40.03 49.7,64.13 12.8,24.54 21.08,56.41 -12.31,75.85 -6.98,4.08 -14.82,6.52 -22.81,7.76 -59.08,9.16 -129.5,0.36 -169.08,-46.14 -32.26,-37.9 -36.84,-91.36 -39.95,-141.03 -9.83,-156.45 -268.84,-447.12 -168.73,-661.4 l 47.94,0.68" /><path
         id="path158"
         style="fill:#17282f;fill-opacity:1;fill-rule:nonzero;stroke:none"
         d="m 5820.18,3105.19 c -2.01,-5.21 -21.22,-2.38 -43.89,-4.71 -22.74,-1.87 -41.1,-8.17 -44.01,-3.41 -1.31,2.28 1.96,7.15 9.43,12.1 7.4,4.94 19.16,9.55 32.77,10.82 13.61,1.25 26.02,-1.13 34.19,-4.63 8.25,-3.5 12.37,-7.69 11.51,-10.17" /><path
         id="path160"
         style="fill:#17282f;fill-opacity:1;fill-rule:nonzero;stroke:none"
         d="m 5997.42,3085.87 c -3.47,-4.32 -16.68,0.46 -32.65,0.96 -15.96,1.06 -29.56,-2.42 -32.6,2.22 -1.32,2.25 0.89,6.6 6.87,10.64 5.9,4.03 15.71,7.23 26.68,6.71 10.97,-0.55 20.42,-4.69 25.89,-9.27 5.58,-4.61 7.35,-9.15 5.81,-11.26" /><path
         id="path162"
         style="fill:#33535f;fill-opacity:1;fill-rule:nonzero;stroke:none"
         d="m 6531.07,2989.19 c 0,-10.83 -8.78,-19.6 -19.61,-19.6 -10.82,0 -19.59,8.77 -19.59,19.6 0,10.83 8.77,19.6 19.59,19.6 10.83,0 19.61,-8.77 19.61,-19.6" /><path
         id="path164"
         style="fill:#33535f;fill-opacity:1;fill-rule:nonzero;stroke:none"
         d="m 6609.51,2989.19 c 0,-10.83 -8.78,-19.6 -19.6,-19.6 -10.83,0 -19.6,8.77 -19.6,19.6 0,10.83 8.77,19.6 19.6,19.6 10.82,0 19.6,-8.77 19.6,-19.6" /><path
         id="path166"
         style="fill:#33535f;fill-opacity:1;fill-rule:nonzero;stroke:none"
         d="m 6687.75,2998.99 c 5.41,-9.37 2.2,-21.36 -7.17,-26.77 -9.38,-5.41 -21.37,-2.2 -26.78,7.17 -5.41,9.38 -2.2,21.37 7.18,26.78 9.37,5.41 21.35,2.2 26.77,-7.18" /><path
         id="path168"
         style="fill:#33535f;fill-opacity:1;fill-rule:nonzero;stroke:none"
         d="m 6591.12,3218.13 c 0,0.09 1.34,0.11 3.97,0.07 2.87,-0.08 6.73,-0.19 11.65,-0.33 2.56,-0.12 5.43,-0.12 8.58,-0.38 3.16,-0.44 6.57,-0.93 10.28,-1.44 3.72,-0.54 7.72,-1.12 11.99,-1.73 4.2,-1.04 8.66,-2.15 13.39,-3.32 18.81,-4.84 41.62,-13.11 64.93,-28.31 23.29,-14.95 47.5,-36.33 67.15,-65.39 19.27,-29.1 34.15,-65.71 38.08,-106.83 0.39,-10.28 1.63,-20.75 0.64,-31.39 -0.37,-5.31 -0.27,-10.71 -1.04,-16.06 -0.81,-5.35 -1.62,-10.74 -2.44,-16.17 -4.37,-21.45 -10.76,-43.42 -21.82,-63.89 -10.79,-20.51 -24.72,-40.03 -41.72,-57.42 -17.34,-17.03 -37.59,-31.8 -60.12,-43.19 -22.47,-11.48 -47.37,-19.41 -73.29,-22.49 -6.42,-1.28 -12.99,-1.27 -19.54,-1.67 -6.57,-0.43 -13.15,-0.67 -19.77,-0.35 -13.21,0.53 -26.47,2.19 -39.57,4.99 -28.47,6.06 -55.26,17.65 -78.79,33.16 l 2.39,-0.24 c -27.31,-10.96 -54.11,-21.72 -80.26,-32.21 l -4.75,-1.91 1.36,4.93 c 8.1,29.46 15.97,58.1 23.59,85.8 l 0.41,-2.12 c -22.52,29.94 -36.89,64.11 -42.84,98.05 -2.97,16.95 -4.23,33.87 -3.11,50.23 0.35,8.19 0.74,16.27 2.27,24.12 0.62,3.94 1.22,7.85 1.83,11.74 0.71,3.86 1.89,7.6 2.8,11.36 15.51,60.4 52.71,105.01 89.54,130.53 18.45,12.99 36.63,22.31 53.3,28.12 4.15,1.48 8.14,2.92 12,4.3 3.95,1 7.75,1.96 11.39,2.89 3.64,0.9 7.11,1.76 10.42,2.59 3.34,0.64 6.58,0.98 9.6,1.45 6.07,0.76 11.4,1.81 16.07,2.04 4.6,0.16 8.52,0.29 11.79,0.4 2.99,0.07 5.37,0.12 7.2,0.16 1.62,0.01 2.44,-0.02 2.44,-0.09 0,-0.07 -0.82,-0.18 -2.43,-0.33 -1.83,-0.15 -4.2,-0.33 -7.18,-0.57 -3.24,-0.22 -7.14,-0.48 -11.71,-0.79 -4.63,-0.36 -9.92,-1.53 -15.92,-2.42 -23.62,-4.33 -59.03,-13.75 -95.2,-40.2 -36.12,-25.54 -72.38,-69.72 -87.29,-129.09 -0.87,-3.7 -2.01,-7.37 -2.7,-11.17 -0.57,-3.81 -1.15,-7.66 -1.73,-11.53 -1.48,-7.71 -1.82,-15.65 -2.13,-23.69 -1.04,-16.05 0.27,-32.64 3.26,-49.24 5.94,-33.24 20.11,-66.65 42.23,-95.91 l 0.72,-0.96 -0.31,-1.16 c -7.56,-27.72 -15.38,-56.38 -23.42,-85.84 l -3.39,3.02 c 26.14,10.52 52.92,21.31 80.22,32.3 l 1.25,0.51 1.14,-0.75 c 23.02,-15.15 49.22,-26.46 77.03,-32.38 12.81,-2.74 25.77,-4.37 38.69,-4.9 6.46,-0.3 12.91,-0.07 19.32,0.35 6.41,0.39 12.83,0.37 19.1,1.62 25.35,2.99 49.69,10.71 71.68,21.91 22.05,11.11 41.89,25.52 58.89,42.15 16.67,16.98 30.35,36.06 40.99,56.11 10.89,20.01 17.19,41.51 21.57,62.52 0.83,5.31 1.64,10.6 2.45,15.84 0.78,5.24 0.69,10.54 1.08,15.74 1.03,10.44 -0.16,20.71 -0.48,30.81 -3.69,40.36 -18.08,76.4 -36.86,105.17 -19.13,28.73 -42.81,50 -65.66,65 -22.87,15.24 -45.31,23.7 -63.88,28.79 -4.66,1.24 -9.07,2.42 -13.22,3.53 -4.22,0.69 -8.18,1.34 -11.87,1.94 -3.66,0.61 -7.05,1.17 -10.17,1.68 -3.13,0.35 -5.98,0.43 -8.53,0.63 -4.88,0.36 -8.72,0.64 -11.58,0.85 -2.62,0.22 -3.96,0.37 -3.96,0.46" /><path
         id="path170"
         style="fill:#dadbd8;fill-opacity:1;fill-rule:nonzero;stroke:none"
         d="m 2132.64,1387.23 -353.08,-59.51 c -132.16,113.98 -304.13,183.06 -492.34,183.06 -416.685,0 -754.47,-337.8 -754.47,-754.479 0,-416.68 337.785,-754.46116 754.47,-754.46116 416.67,0 754.46,337.78116 754.46,754.46116 0,116.73 -26.53,227.238 -73.85,325.889 l 164.81,305.04" /><path
         id="path172"
         style="fill:#17282f;fill-opacity:1;fill-rule:nonzero;stroke:none"
         d="m 585.27,1548.42 c 0,-10.83 8.773,-19.61 19.597,-19.61 10.824,0 19.602,8.78 19.602,19.61 0,10.82 -8.778,19.6 -19.602,19.6 -10.824,0 -19.597,-8.78 -19.597,-19.6" /><path
         id="path174"
         style="fill:#17282f;fill-opacity:1;fill-rule:nonzero;stroke:none"
         d="m 506.824,1548.42 c 0,-10.83 8.778,-19.61 19.602,-19.61 10.832,0 19.605,8.78 19.605,19.61 0,10.82 -8.773,19.6 -19.605,19.6 -10.824,0 -19.602,-8.78 -19.602,-19.6" /><path
         id="path176"
         style="fill:#17282f;fill-opacity:1;fill-rule:nonzero;stroke:none"
         d="m 428.59,1558.22 c -5.414,-9.38 -2.203,-21.36 7.172,-26.78 9.375,-5.41 21.363,-2.2 26.777,7.18 5.41,9.37 2.195,21.37 -7.18,26.78 -9.375,5.41 -21.359,2.19 -26.769,-7.18" /><path
         id="path178"
         style="fill:#17282f;fill-opacity:1;fill-rule:nonzero;stroke:none"
         d="m 525.215,1777.36 c 0,-0.09 -1.344,-0.25 -3.953,-0.47 -2.864,-0.21 -6.699,-0.49 -11.59,-0.84 -2.539,-0.2 -5.395,-0.28 -8.52,-0.63 -3.121,-0.51 -6.511,-1.08 -10.175,-1.68 -3.688,-0.61 -7.649,-1.25 -11.868,-1.95 -4.148,-1.1 -8.558,-2.28 -13.226,-3.52 -18.57,-5.1 -41.012,-13.56 -63.871,-28.8 -22.852,-14.99 -46.528,-36.27 -65.668,-64.99 -18.778,-28.77 -33.168,-64.81 -36.852,-105.17 -0.32,-10.11 -1.512,-20.38 -0.488,-30.81 0.391,-5.2 0.297,-10.5 1.078,-15.74 0.813,-5.24 1.633,-10.53 2.453,-15.85 4.379,-21.01 10.688,-42.51 21.574,-62.51 10.637,-20.06 24.313,-39.13 40.989,-56.11 17.007,-16.63 36.84,-31.05 58.89,-42.15 21.989,-11.2 46.328,-18.93 71.672,-21.92 6.274,-1.25 12.699,-1.23 19.11,-1.62 6.414,-0.41 12.851,-0.65 19.316,-0.34 12.926,0.53 25.887,2.15 38.687,4.89 27.817,5.92 54.008,17.24 77.032,32.39 l 1.136,0.74 1.254,-0.5 c 27.301,-11 54.078,-21.78 80.223,-32.3 l -3.395,-3.03 c -8.039,29.46 -15.855,58.12 -23.418,85.85 l -0.316,1.16 0.723,0.96 c 22.125,29.26 36.289,62.67 42.242,95.91 2.98,16.6 4.289,33.19 3.25,49.23 -0.309,8.05 -0.649,15.98 -2.129,23.7 -0.574,3.86 -1.156,7.71 -1.73,11.53 -0.68,3.8 -1.821,7.47 -2.7,11.17 -14.91,59.37 -51.168,103.55 -87.285,129.09 -36.176,26.45 -71.586,35.87 -95.203,40.2 -6.008,0.89 -11.285,2.06 -15.926,2.42 -4.562,0.3 -8.465,0.57 -11.711,0.79 -2.972,0.23 -5.34,0.42 -7.175,0.57 -1.61,0.14 -2.43,0.26 -2.43,0.33 0,0.07 0.82,0.1 2.437,0.09 1.84,-0.04 4.211,-0.1 7.203,-0.16 3.27,-0.12 7.196,-0.24 11.79,-0.4 4.671,-0.23 10.003,-1.28 16.074,-2.05 3.023,-0.47 6.25,-0.81 9.594,-1.46 3.316,-0.82 6.789,-1.68 10.425,-2.57 3.641,-0.93 7.438,-1.9 11.395,-2.89 3.851,-1.39 7.847,-2.82 12,-4.3 16.66,-5.81 34.844,-15.13 53.293,-28.12 36.836,-25.52 74.031,-70.13 89.539,-130.53 0.914,-3.76 2.086,-7.5 2.805,-11.36 0.601,-3.89 1.21,-7.8 1.824,-11.74 1.535,-7.85 1.929,-15.94 2.273,-24.13 1.129,-16.35 -0.137,-33.27 -3.117,-50.22 -5.949,-33.94 -20.309,-68.12 -42.828,-98.05 l 0.406,2.12 c 7.617,-27.71 15.492,-56.35 23.594,-85.8 l 1.351,-4.94 -4.75,1.91 c -26.152,10.5 -52.945,21.25 -80.253,32.22 l 2.386,0.24 c -23.531,-15.51 -50.328,-27.1 -78.789,-33.16 -13.101,-2.81 -26.355,-4.47 -39.574,-4.99 -6.617,-0.32 -13.203,-0.08 -19.762,0.35 -6.551,0.4 -13.125,0.39 -19.547,1.67 -25.918,3.08 -50.812,11 -73.285,22.49 -22.535,11.38 -42.781,26.16 -60.117,43.19 -17.008,17.38 -30.934,36.91 -41.734,57.42 -11.047,20.46 -17.438,42.43 -21.817,63.89 -0.82,5.43 -1.629,10.82 -2.433,16.17 -0.778,5.35 -0.672,10.75 -1.043,16.06 -0.992,10.64 0.25,21.1 0.636,31.39 3.934,41.12 18.813,77.73 38.09,106.82 19.649,29.06 43.86,50.45 67.149,65.4 23.308,15.19 46.113,23.47 64.925,28.31 4.727,1.17 9.192,2.28 13.399,3.32 4.266,0.62 8.262,1.18 11.988,1.72 3.696,0.52 7.125,1 10.274,1.44 3.148,0.27 6.031,0.27 8.589,0.39 4.911,0.13 8.77,0.24 11.645,0.33 2.621,0.04 3.965,0.02 3.965,-0.07" /><path
         id="path180"
         style="fill:#17282f;fill-opacity:1;fill-rule:nonzero;stroke:none"
         d="m 1369.75,1915.97 c 18.27,40.75 60.99,69.4 105.72,70.89 44.73,1.49 89.28,-24.24 110.24,-63.68 12.47,-23.47 17.4,-51.44 35.43,-70.99 22.48,-24.37 63.88,-28.25 90.51,-8.46 7.3,-28.48 -10.35,-61.07 -38.23,-70.6 14.74,-1.51 29.49,-3.03 44.22,-4.54 -23.86,-52.06 -89.19,-75.91 -145.68,-65.74 -56.48,10.16 -104.48,47.53 -142.92,90.04" /><path
         id="path182"
         style="fill:#17282f;fill-opacity:1;fill-rule:nonzero;stroke:none"
         d="m 1370.08,1915.24 136.41,-44.67 c 47.97,-31.73 86.21,-78.26 105.05,-132.58 6.38,-18.4 10.73,-37.55 18.8,-55.29 8.07,-17.73 20.6,-34.42 38.41,-42.38 13.11,-5.86 27.97,-6.54 41.44,-11.51 22.77,-8.38 40.02,-29.24 45.78,-52.77 5.76,-23.52 0.53,-49.12 -12.37,-69.63 -6.47,-10.27 -15.08,-20.23 -15.64,-32.35 -0.38,-8.21 3.06,-16.03 4.98,-24.01 6.52,-27.1 -6.42,-57.71 -30.44,-71.98 -24,-14.26 -57.16,-11.01 -77.94,7.62 -8.73,-20.03 -20.33,-40.66 -40.09,-50.08 -19.75,-9.41 -48.92,-0.95 -53.03,20.5 -9.83,-20.58 -34.39,-33.01 -56.86,-28.75 -22.45,4.25 -40.74,24.79 -42.32,47.54 l -373.85,407.78 c 55.8,149.18 274,136 311.67,132.56" /><path
         id="path184"
         style="fill:#f8a58d;fill-opacity:1;fill-rule:nonzero;stroke:none"
         d="m 1433.38,1773.4 c 24.07,-2.54 42.18,-23.02 41.7,-47.14 l -26.41,-627.89 c -1,-74.15 -135.89,-161.819 -215.48,-160.14 -80.38,1.692 -56.74,86.77 -57.91,157.3 -1.94,117.85 -1.9,162.09 -1.94,161.42 0,0 -101.56,16.82 -122.61,148.99 -10.46,65.74 -7.15,173.5 -1.58,261.59 5.01,79.3 57.68,176.59 136.89,168.23 l 247.34,-62.36" /><path
         id="path186"
         style="fill:#17282f;fill-opacity:1;fill-rule:nonzero;stroke:none"
         d="m 1083.57,1581.98 c -0.32,-8.95 7.02,-16.59 16.39,-17.1 9.35,-0.5 17.2,6.33 17.52,15.28 0.31,8.96 -7.03,16.61 -16.37,17.11 -9.37,0.51 -17.22,-6.34 -17.54,-15.29" /><path
         id="path188"
         style="fill:#17282f;fill-opacity:1;fill-rule:nonzero;stroke:none"
         d="m 1072.58,1611.47 c 2.11,-2.21 14.99,7.3 33.27,7.25 18.27,0.21 31.69,-9.17 33.68,-6.94 0.97,0.99 -1.18,4.97 -7.02,9.22 -5.75,4.23 -15.56,8.34 -26.95,8.29 -11.39,-0.06 -20.98,-4.25 -26.48,-8.52 -5.63,-4.31 -7.53,-8.3 -6.5,-9.3" /><path
         id="path190"
         style="fill:#17282f;fill-opacity:1;fill-rule:nonzero;stroke:none"
         d="m 1262.35,1581.98 c -0.32,-8.95 7.03,-16.59 16.39,-17.1 9.35,-0.5 17.2,6.33 17.51,15.28 0.32,8.96 -7.02,16.61 -16.37,17.11 -9.36,0.51 -17.21,-6.34 -17.53,-15.29" /><path
         id="path192"
         style="fill:#17282f;fill-opacity:1;fill-rule:nonzero;stroke:none"
         d="m 1252.34,1608.07 c 2.11,-2.21 15,7.29 33.28,7.24 18.27,0.21 31.69,-9.17 33.67,-6.94 0.97,1 -1.15,4.98 -7.02,9.22 -5.75,4.23 -15.56,8.34 -26.95,8.29 -11.39,-0.05 -20.97,-4.24 -26.48,-8.52 -5.61,-4.31 -7.53,-8.3 -6.5,-9.29" /><path
         id="path194"
         style="fill:#17282f;fill-opacity:1;fill-rule:nonzero;stroke:none"
         d="m 1185.98,1472.8 c 0.08,1.03 -11.29,3 -29.71,5.34 -4.67,0.49 -9.09,1.41 -9.88,4.59 -1.1,3.37 0.86,8.39 3.12,13.81 4.39,11.27 8.99,23.07 13.82,35.46 19.17,50.5 33.05,92.02 31.01,92.77 -2.05,0.75 -19.25,-39.57 -38.43,-90.07 -4.62,-12.45 -9.03,-24.31 -13.23,-35.67 -1.77,-5.29 -4.8,-11.3 -2.42,-18.28 1.25,-3.48 4.68,-6.01 7.67,-6.81 3,-0.91 5.62,-0.97 7.94,-1.1 18.53,-1 30.04,-1.08 30.11,-0.04" /><path
         id="path196"
         style="fill:#f68260;fill-opacity:1;fill-rule:nonzero;stroke:none"
         d="m 1173.34,1256.95 c 0,0 89.15,-5.73 177.47,47.22 0,0 -43.06,-90.8 -175.68,-78.42 l -1.79,31.2" /><path
         id="path198"
         style="fill:#f68260;fill-opacity:1;fill-rule:nonzero;stroke:none"
         d="m 1193.71,1428.84 c 6.57,8.68 18.1,13.43 29.54,12.21 7.94,-0.86 15.95,-4.67 20.77,-11.12 4.83,-6.44 5.84,-15.6 1.45,-21.74 -4.93,-6.92 -15.25,-8.52 -23.97,-6.05 -8.73,2.47 -16.24,8.21 -23.37,13.92 -1.98,1.58 -3.99,3.23 -5.23,5.39 -1.23,2.17 -1.49,5 0.03,6.79" /><path
         id="path200"
         style="fill:#17282f;fill-opacity:1;fill-rule:nonzero;stroke:none"
         d="m 1239.79,1460.18 c -2.97,0.18 -3.01,-19.63 -20,-33.68 -16.96,-14.09 -38.12,-11.88 -38.28,-14.64 -0.27,-1.24 4.72,-3.85 13.65,-4.09 8.76,-0.3 21.55,2.51 31.95,11.1 10.37,8.63 14.82,20.12 15.5,28.24 0.75,8.28 -1.46,13.19 -2.82,13.07" /><path
         id="path202"
         style="fill:#17282f;fill-opacity:1;fill-rule:nonzero;stroke:none"
         d="m 1244.12,1640.01 c 1.8,-4.97 20.06,-2.61 41.51,-5.19 21.51,-2.15 38.81,-8.42 41.66,-3.97 1.27,2.12 -1.74,6.79 -8.74,11.6 -6.93,4.79 -18,9.34 -30.88,10.78 -12.88,1.4 -24.67,-0.64 -32.49,-3.81 -7.87,-3.16 -11.84,-7.06 -11.06,-9.41" /><path
         id="path204"
         style="fill:#17282f;fill-opacity:1;fill-rule:nonzero;stroke:none"
         d="m 1079.31,1664.26 c 3.21,-4.14 15.81,0.16 30.96,0.36 15.15,0.74 27.98,-2.78 30.93,1.55 1.3,2.11 -0.72,6.26 -6.33,10.17 -5.52,3.91 -14.76,7.11 -25.17,6.79 -10.41,-0.32 -19.43,-4.08 -24.7,-8.32 -5.35,-4.26 -7.11,-8.53 -5.69,-10.55" /><path
         id="path206"
         style="fill:#f8a58d;fill-opacity:1;fill-rule:nonzero;stroke:none"
         d="m 1460.41,1562 c 10.04,6.93 24.08,4.36 34.65,-1.74 24.35,-14.04 36.46,-46.16 27.42,-72.73 -9.04,-26.57 -38.25,-44.7 -66.14,-41.06" /><path
         id="path208"
         style="fill:#17282f;fill-opacity:1;fill-rule:nonzero;stroke:none"
         d="m 1252.08,1879.78 c -48.3,-1.6 -84.93,-16.25 -127.32,-39.38 -42.39,-23.14 -77.84,-61.31 -90.89,-107.72 -2.77,-9.85 -4.34,-21.07 1.07,-29.76 7.14,-11.48 24.01,-13.38 36.34,-7.82 12.34,5.56 21.19,16.57 29.56,27.18 6.27,-24.25 30.39,-42.68 55.5,-42.39 25.11,0.27 48.8,19.24 54.52,43.62 0.2,-25.38 25.66,-46.36 51.09,-45.45 25.42,0.92 47.94,20.48 56.4,44.41 4.73,-22.55 9.78,-45.85 23.31,-64.53 13.53,-18.67 38.03,-31.51 59.99,-24.37 -3.11,-19.7 -6.13,-40.44 0.87,-59.11 7.01,-18.68 27.81,-33.8 46.72,-27.33 18.36,6.29 25.48,27.98 29.78,46.87 8.28,36.41 15.37,73.46 14.2,110.77 -1.16,37.32 -11.17,75.26 -34.11,104.77 -23.74,30.5 -59.69,49.86 -97.13,59.72 -37.44,9.86 -76.61,10.96 -115.33,10.47" /><path
         id="path210"
         style="fill:#f68260;fill-opacity:1;fill-rule:nonzero;stroke:none"
         d="m 1469.67,1485.89 c 0.38,0.94 5.15,-1.13 11.55,1.81 6.29,2.49 12.03,11.78 11.36,22.58 -0.37,10.95 -7.47,18.8 -14.13,21.19 -6.63,2.72 -11.52,1.39 -11.79,2.41 -0.46,0.65 4.5,4.16 13.25,2.21 4.21,-0.99 9.12,-3.5 12.96,-8.06 3.79,-4.5 6.26,-10.75 6.57,-17.4 0.96,-13.32 -7.43,-25.42 -16.58,-27.49 -9.01,-2.36 -13.9,2.22 -13.19,2.75" /><path
         id="path212"
         style="fill:#f03d5f;fill-opacity:1;fill-rule:nonzero;stroke:none"
         d="m 1456.34,1447.61 c 0,-9.52 7.74,-17.23 17.28,-17.23 9.55,0 17.29,7.71 17.29,17.23 0,9.52 -7.74,17.24 -17.29,17.24 -9.54,0 -17.28,-7.72 -17.28,-17.24" /><path
         id="path214"
         style="fill:#f03d5f;fill-opacity:1;fill-rule:nonzero;stroke:none"
         d="m 1371.84,1921.94 c -0.11,0.5 8,2.85 21.52,2.46 13.45,-0.32 32.22,-4.39 50.22,-14.72 17.96,-10.39 30.9,-24.59 37.91,-36.06 7.11,-11.52 9.14,-19.72 8.65,-19.86 -0.85,-0.37 -4.07,7.22 -11.7,17.79 -7.55,10.58 -20.28,23.67 -37.46,33.62 -17.23,9.86 -34.94,14.31 -47.87,15.55 -12.97,1.32 -21.16,0.3 -21.27,1.22" /><path
         id="path216"
         style="fill:#33535f;fill-opacity:1;fill-rule:nonzero;stroke:none"
         d="m 1441.11,1921.87 c -0.18,-0.01 -0.34,1.41 -0.47,4.16 0.03,2.73 0.47,6.89 2.53,11.77 3.78,9.78 15.53,22.11 34.22,26.48 18.9,5.16 42.84,-4.53 59.46,-22.82 8.5,-9.08 15.69,-20.09 21.56,-32.14 5.89,-12.02 10.68,-24.95 15.76,-37.97 5.07,-13 10.32,-25.57 16.97,-36.71 6.67,-11.09 14.83,-20.78 24.08,-28.12 9.2,-7.36 19.64,-12.2 29.94,-13.63 10.27,-1.72 20.11,0.49 28.25,3.93 16.42,7.41 25.57,20 29.79,28.97 4.11,9.24 4.32,15.08 4.88,15 0.18,-0.02 0.15,-1.45 -0.08,-4.18 -0.27,-2.72 -1.11,-6.71 -2.94,-11.62 -3.8,-9.56 -12.86,-23.18 -30.13,-31.52 -8.54,-3.89 -19.16,-6.53 -30.37,-4.86 -11.17,1.36 -22.48,6.44 -32.3,14.14 -9.88,7.67 -18.48,17.74 -25.49,29.26 -6.98,11.56 -12.34,24.36 -17.45,37.45 -9.93,26.17 -19.53,51.26 -35.99,68.75 -15.76,17.59 -37.64,26.78 -55.18,22.48 -17.56,-3.65 -29.04,-14.78 -33.13,-23.73 -4.42,-9.08 -3.19,-15.18 -3.91,-15.09" /><path
         id="path218"
         style="fill:#33535f;fill-opacity:1;fill-rule:nonzero;stroke:none"
         d="m 1191.46,1717.76 c -0.18,-0.03 -0.47,1.22 -0.86,3.63 -0.28,2.41 -1.09,5.96 -1.22,10.6 -0.79,9.25 -0.51,22.81 2.46,39.21 2.9,16.39 9.39,35.46 20.24,54.7 11.11,19.04 26.96,38.23 47.97,52.9 20.87,14.81 43.79,24.01 65.11,29.35 21.37,5.48 41.38,6.87 58,5.93 16.63,-0.97 29.9,-3.91 38.65,-7.04 4.46,-1.26 7.66,-3.04 9.92,-3.94 2.23,-1.01 3.35,-1.62 3.27,-1.79 -0.32,-1.21 -19.15,8.31 -51.99,9.1 -16.28,0.45 -35.82,-1.29 -56.65,-6.9 -20.78,-5.48 -43.08,-14.61 -63.3,-28.95 -20.34,-14.2 -35.79,-32.69 -46.83,-51.08 -10.78,-18.6 -17.49,-37.05 -20.79,-53.02 -6.78,-32.08 -2.7,-52.7 -3.98,-52.7" /><path
         id="path220"
         style="fill:#33535f;fill-opacity:1;fill-rule:nonzero;stroke:none"
         d="m 1274.94,1726.66 c -0.31,0.01 -0.6,3.66 -0.36,10.29 0.22,6.62 1.25,16.21 3.85,27.81 5.03,23.1 18.04,54.62 43,81.48 24.96,26.87 55.41,42.19 78.06,48.96 11.37,3.47 20.85,5.23 27.44,5.96 6.58,0.74 10.25,0.74 10.28,0.42 0.15,-0.97 -14.51,-2.18 -36.57,-9.88 -21.92,-7.52 -51.19,-22.94 -75.4,-49.01 -24.2,-26.05 -37.39,-56.4 -43.24,-78.82 -6.01,-22.57 -6.07,-37.29 -7.06,-37.21" /><path
         id="path222"
         style="fill:#f03d5f;fill-opacity:1;fill-rule:nonzero;stroke:none"
         d="m 1252.08,945.941 c -28.94,88.679 -99.69,178.999 -177.44,146.419 -86.531,-36.27 -110.577,-82.23 -157.999,-153.438 -47.418,-71.223 -76.504,-152.723 -105.137,-233.313 -11.195,-31.519 -22,-68.089 -4.828,-96.808 14.812,-24.762 45.301,-34.559 73.242,-41.992 72.059,-19.168 144.852,-35.59 218.172,-49.227 29.41,-5.461 61.68,-10.051 87.69,4.707 33.03,18.742 43.1,60.691 49.98,97.981 24.15,130.839 48.3,261.679 72.45,392.52" /><path
         id="path224"
         style="fill:#f03d5f;fill-opacity:1;fill-rule:nonzero;stroke:none"
         d="m 1168.85,1134.91 -113.83,-49.07 C 997.488,1040.53 981.227,962.941 983.184,889.859 L 935.848,88.4805 c 0,0 332.012,-205.2105 719.982,9.3906 10.1,5.5899 -64.96,188.8709 -64.96,188.8709 l 105.67,400.18 c 8.14,57.539 13.12,176.828 -1.9,233.449 -38.52,145.219 -141.51,188.659 -247.3,217.749 0,0 -105.83,-88.8 -209.07,-70.09 0,0 -62.99,5.85 -69.42,66.88" /><path
         id="path226"
         style="fill:#da314b;fill-opacity:1;fill-rule:nonzero;stroke:none"
         d="m 1395.04,56.4688 c -32.21,0 -64.42,8.6601 -91.58,26.0117 -38.09,24.3395 -64.79,62.5505 -90.47,99.7615 -65.67,95.16 -131.34,190.317 -197.01,285.488 l 3.15,1.821 c 7.47,17.238 26.5,25.82 45.67,25.82 7.26,0 14.54,-1.23 21.21,-3.68 24.31,-8.949 42.25,-29.441 58.69,-49.461 44.43,-54.121 87.02,-111.621 145.06,-150.8 36.97,-24.969 82.26,-41.188 126.26,-41.188 25.07,0 49.73,5.27 72.18,17.188 10.62,5.64 20.67,12.679 32.21,16.101 3.92,1.16 8.11,1.809 12.26,1.809 8.06,0 15.96,-2.438 21.38,-8.25 5.31,-5.688 7.39,-13.641 8.75,-21.301 11.51,-64.699 -18.41,-134.887 -73.04,-171.3867 -27.83,-18.6015 -61.28,-27.9335 -94.72,-27.9335" /><path
         id="path228"
         style="fill:#ffffff;fill-opacity:1;fill-rule:nonzero;stroke:none"
         d="m 1279.76,928.199 c 0,-37.457 30.45,-67.828 68.01,-67.828 37.57,0 68.02,30.371 68.02,67.828 0,37.461 -30.45,67.832 -68.02,67.832 -37.56,0 -68.01,-30.371 -68.01,-67.832" /><path
         id="path230"
         style="fill:#ffffff;fill-opacity:1;fill-rule:nonzero;stroke:none"
         d="m 1030.78,986.082 c 0,-37.461 30.45,-67.832 68,-67.832 37.57,0 68.02,30.371 68.02,67.832 0,37.468 -30.45,67.838 -68.02,67.838 -37.55,0 -68,-30.37 -68,-67.838" /><path
         id="path232"
         style="fill:#ffffff;fill-opacity:1;fill-rule:nonzero;stroke:none"
         d="m 975.898,336.52 c 0,-37.461 30.452,-67.829 68.012,-67.829 37.56,0 68.01,30.368 68.01,67.829 0,37.472 -30.45,67.839 -68.01,67.839 -37.56,0 -68.012,-30.367 -68.012,-67.839" /><path
         id="path234"
         style="fill:#ffffff;fill-opacity:1;fill-rule:nonzero;stroke:none"
         d="m 1098.78,141.219 c 0,-37.457 30.45,-67.8401 68.02,-67.8401 37.56,0 68.01,30.3831 68.01,67.8401 0,37.461 -30.45,67.832 -68.01,67.832 -37.57,0 -68.02,-30.371 -68.02,-67.832" /><path
         id="path236"
         style="fill:#ffffff;fill-opacity:1;fill-rule:nonzero;stroke:none"
         d="m 1415.79,124.762 c 0,-37.4729 30.45,-67.8401 68.01,-67.8401 37.56,0 68.01,30.3672 68.01,67.8401 0,37.457 -30.45,67.828 -68.01,67.828 -37.56,0 -68.01,-30.371 -68.01,-67.828" /><path
         id="path238"
         style="fill:#ffffff;fill-opacity:1;fill-rule:nonzero;stroke:none"
         d="m 1147.22,542.422 c 0,-37.461 30.45,-67.832 68.01,-67.832 37.56,0 68.01,30.371 68.01,67.832 0,37.457 -30.45,67.828 -68.01,67.828 -37.56,0 -68.01,-30.371 -68.01,-67.828" /><path
         id="path240"
         style="fill:#ffffff;fill-opacity:1;fill-rule:nonzero;stroke:none"
         d="m 1079.2,756.301 c 0,-37.461 30.45,-67.832 68.02,-67.832 37.56,0 68.01,30.371 68.01,67.832 0,37.469 -30.45,67.851 -68.01,67.851 -37.57,0 -68.02,-30.382 -68.02,-67.851" /><path
         id="path242"
         style="fill:#17282f;fill-opacity:1;fill-rule:nonzero;stroke:none"
         d="m 1147.22,1118.42 c 1.21,0.89 8.41,-20.79 35.05,-43.13 13.09,-11.15 31.16,-21.5 52.74,-28.62 21.6,-6.97 46.87,-10.28 72.92,-7.41 26.08,3.17 50.14,11.26 70.58,21.37 20.51,10.04 37.64,21.71 51.28,32.36 13.66,10.68 24.05,20.17 31.07,26.89 7.04,6.71 10.89,10.49 11.18,10.21 0.24,-0.2 -3.11,-4.45 -9.74,-11.64 -6.61,-7.19 -16.69,-17.18 -30.22,-28.33 -13.49,-11.15 -30.64,-23.32 -51.44,-33.79 -20.7,-10.53 -45.31,-18.99 -72.1,-22.24 -26.9,-2.97 -52.91,0.6 -75.03,8.03 -22.11,7.56 -40.5,18.56 -53.64,30.37 -13.2,11.73 -21.76,23.41 -26.4,32.08 -2.64,4.14 -3.82,7.84 -4.95,10.14 -1.02,2.38 -1.47,3.64 -1.3,3.71" /><path
         id="path244"
         style="fill:#f03d5f;fill-opacity:1;fill-rule:nonzero;stroke:none"
         d="m 1489.89,1123.06 c 77.77,-32.51 158.71,-67.31 212.42,-132.15 54.6,-65.898 73.62,-155.461 69.65,-240.859 -3.98,-85.399 -28.83,-168.281 -53.51,-250.149 -9.66,-32.031 -22.62,-67.89 -53.49,-80.922 -26.63,-11.238 -57.03,-1.16 -83.96,9.321 -69.48,27.039 -137.92,56.711 -205.14,88.961 -26.96,12.929 -55.7,28.269 -67.93,55.5 -15.54,34.597 1.22,74.367 17.77,108.5 58.08,119.758 116.17,239.527 174.26,359.278" /><path
         id="path246"
         style="fill:#ffffff;fill-opacity:1;fill-rule:nonzero;stroke:none"
         d="m 1587.81,708.641 c 0,-37.461 30.45,-67.828 68.02,-67.828 37.55,0 68,30.367 68,67.828 0,37.461 -30.45,67.828 -68,67.828 -37.57,0 -68.02,-30.367 -68.02,-67.828" /><path
         id="path248"
         style="fill:#ffffff;fill-opacity:1;fill-rule:nonzero;stroke:none"
         d="m 1407.71,584.621 c 0,-37.461 30.44,-67.832 68,-67.832 37.57,0 68.02,30.371 68.02,67.832 0,37.469 -30.45,67.848 -68.02,67.848 -37.56,0 -68,-30.379 -68,-67.848" /><path
         id="path250"
         style="fill:#ffffff;fill-opacity:1;fill-rule:nonzero;stroke:none"
         d="m 1493.71,917.621 c 0,-36.742 29.85,-66.519 66.69,-66.519 36.83,0 66.68,29.777 66.68,66.519 0,36.731 -29.85,66.52 -66.68,66.52 -36.84,0 -66.69,-29.789 -66.69,-66.52" /><path
         id="path252"
         style="fill:#f8a58d;fill-opacity:1;fill-rule:nonzero;stroke:none"
         d="M 1355.5,527.742 1338.15,460.961 992.582,712.84 886.758,863.242 c -14.156,20.11 -35.57,33.988 -59.754,38.699 -25.664,5.008 -52.258,-0.722 -73.563,-15.839 l -98.453,-69.86 c 0,0 2.657,-53.031 26.578,-42.422 23.926,10.602 71.774,37.11 71.774,37.11 l 13.293,-127.25 58.48,-42.418 58.481,-45.082 390.186,-387.34 c 84.07,-83.438 225.37,-60.399 278.4,45.402 L 1610,418.41 1355.5,527.742" /><path
         id="path254"
         style="fill:#f68260;fill-opacity:1;fill-rule:nonzero;stroke:none"
         d="m 1329.45,470.469 c 0.21,0.523 6.68,-1.59 14.51,-8.93 7.86,-7.199 16.12,-20.047 20.21,-35.789 4.08,-15.719 4.11,-30.371 3.75,-40.73 -0.43,-10.399 -1.31,-16.75 -2.01,-16.739 -0.74,0.008 -1.16,6.43 -1.67,16.719 -0.58,10.262 -1.22,24.492 -5.1,39.422 -3.89,14.887 -11.08,27.129 -17.82,34.558 -6.68,7.54 -12.31,10.75 -11.87,11.489" /><path
         id="path256"
         style="fill:#f68260;fill-opacity:1;fill-rule:nonzero;stroke:none"
         d="m 752.738,804.34 c -0.558,0.371 1.114,4.441 5.188,10.32 4.043,5.711 10.937,13.832 21.933,17.731 11.34,3.8 22.446,-0.129 27.868,-5.36 5.664,-5.441 5.453,-10.789 4.918,-10.722 -0.836,-0.297 -2,4.113 -7.274,7.882 -5.043,3.731 -14.605,6.399 -23.816,3.278 -9.375,-3.289 -16.145,-10.16 -20.762,-15.117 -4.633,-5.063 -7.418,-8.442 -8.055,-8.012" /><path
         id="path258"
         style="fill:#f68260;fill-opacity:1;fill-rule:nonzero;stroke:none"
         d="m 814.605,770.371 c -0.589,-0.531 -3.21,1.848 -7.957,4.488 -4.683,2.653 -11.8,5.36 -19.875,5.34 -8.082,-0.039 -15.175,-2.82 -19.839,-5.508 -4.723,-2.66 -7.325,-5.07 -7.914,-4.539 -0.504,0.387 1.168,3.789 5.835,7.59 4.571,3.77 12.5,7.617 21.899,7.668 9.394,0.02 17.351,-3.758 21.953,-7.488 4.695,-3.77 6.395,-7.152 5.898,-7.551" /><path
         id="path260"
         style="fill:#17282f;fill-opacity:1;fill-rule:nonzero;stroke:none"
         d="m 1355.5,527.742 c 0,0 -2.43,-0.043 -6.64,1.59 -4.16,1.578 -10.24,5.008 -15.6,11.828 -5.36,6.719 -9.98,16.641 -11.37,28.852 -1.46,12.277 1.58,26.32 7.34,40.39 5.67,14.188 14.19,28.457 21.44,44.477 7.42,15.973 13.85,33.73 19.78,52.66 11.84,37.922 20.38,80.922 32.34,125.481 11.97,44.492 27.77,86.351 50.48,119.742 22.16,33.738 51.81,57.108 79.4,69.808 27.71,13.05 53.12,15.35 69.95,14.18 16.98,-1.24 25.79,-4.89 25.79,-4.89 -0.13,-0.64 -9.15,2.27 -25.89,2.87 -16.59,0.53 -41.35,-2.29 -68.27,-15.49 -26.85,-12.91 -55.46,-35.9 -77,-69.15 -22.05,-32.899 -37.53,-74.211 -49.44,-118.43 -11.89,-44.289 -20.59,-87.398 -32.78,-125.551 -6.1,-19.046 -12.76,-36.937 -20.45,-53.058 -7.55,-16.199 -16.21,-30.301 -21.95,-44.059 -5.84,-13.652 -8.95,-27.051 -7.84,-38.703 1.05,-11.668 5.2,-21.297 10.08,-27.898 4.88,-6.7 10.5,-10.25 14.4,-12.09 3.95,-1.899 6.31,-2.25 6.23,-2.559" /><path
         id="path262"
         style="fill:#17282f;fill-opacity:1;fill-rule:nonzero;stroke:none"
         d="m 971.977,744.879 c -1.426,0.18 2.41,39 8.558,86.703 6.153,47.707 12.301,86.219 13.727,86.039 1.426,-0.18 -2.407,-39 -8.559,-86.711 -6.152,-47.691 -12.301,-86.211 -13.726,-86.031" /><path
         id="path264"
         style="fill:#f8a58d;fill-opacity:1;fill-rule:nonzero;stroke:none"
         d="M 816.547,596.359 798.199,451.969 578.02,639.629 457.59,610.551 c 0,0 124.168,-260.719 222.254,-363.992 98.086,-103.258 150.984,-117.95 188.004,-119.567 50.882,-2.23 74.14,59.738 74.14,59.738 l 22.172,358.891 -147.613,50.738" /><path
         id="path266"
         style="fill:#f68260;fill-opacity:1;fill-rule:nonzero;stroke:none"
         d="m 799.047,455.832 c 1.23,0.59 9.762,-14.992 15.519,-35.98 5.844,-20.993 6.52,-38.723 5.157,-38.84 -1.5,-0.172 -4.453,16.929 -10.176,37.449 -5.625,20.539 -11.871,36.738 -10.5,37.371" /><path
         id="path268"
         style="fill:#33535f;fill-opacity:1;fill-rule:nonzero;stroke:none"
         d="m 556.734,1005.63 h -165.75 c -25.078,0 -47.464,-29.071 -38.449,-52.821 l 166.68,-324.661 c 6.445,-12.578 19.414,-20.496 33.574,-20.496 l 202.07,0.43 c 23.172,3.129 31.625,28.828 22.02,42.77 L 616.055,968.711 c -11.078,22.59 -34.098,36.919 -59.321,36.919" /><path
         id="path270"
         style="fill:#17282f;fill-opacity:1;fill-rule:nonzero;stroke:none"
         d="M 545.543,986.082 H 379.789 c -20.769,0 -34.203,-21.891 -24.75,-40.332 L 517.758,628.148 c 6.445,-12.578 19.41,-20.496 33.574,-20.496 h 199.762 c 12.176,0 20.082,12.809 14.594,23.649 L 604.863,949.16 c -11.078,22.59 -34.101,36.922 -59.32,36.922" /><path
         id="path272"
         style="fill:#f8a58d;fill-opacity:1;fill-rule:nonzero;stroke:none"
         d="m 531.484,853.121 -100.871,-40.289 -21.621,-81.281 48.598,-121 178.246,-25.93 -52.215,53.359 6.723,46.461 c 0,0 49.722,15.59 50.957,23.2 1.222,7.609 -6.172,33.129 -13.801,34.351 -7.629,1.227 -59.785,-18.191 -59.785,-18.191 0,0 61.738,48.871 60.015,56.719 -1.73,7.851 -8.359,27.929 -20.675,30.16 -12.313,2.23 -111.938,-44.731 -111.938,-44.731 l -16.176,-36.867 -14.113,58.969 c 0,0 88.527,24.828 66.656,65.07" /><path
         id="path274"
         style="fill:#f68260;fill-opacity:1;fill-rule:nonzero;stroke:none"
         d="m 544.172,662.551 c -0.598,-0.172 -2.488,3.508 -3.418,10.058 -0.957,6.512 -0.488,15.911 3.023,25.461 3.551,9.532 9.325,16.969 14.282,21.289 4.972,4.383 8.796,5.942 9.132,5.422 0.997,-1.211 -12.14,-10.66 -18.531,-28.519 -6.785,-17.711 -2.953,-33.43 -4.488,-33.711" /><path
         id="path276"
         style="fill:#f68260;fill-opacity:1;fill-rule:nonzero;stroke:none"
         d="m 496.23,680.172 c -0.589,0.289 2.989,9.84 4,26.43 0.782,8.218 1.25,18.41 5.079,29.269 1.925,5.379 4.785,10.949 9.285,15.621 4.5,4.727 10.457,7.957 16.48,10.36 24.121,8.75 45.84,15.828 61.742,20.968 15.875,5.071 25.813,7.852 26.051,7.18 0.235,-0.691 -9.273,-4.699 -24.836,-10.648 -15.484,-6 -37.343,-13.75 -61.008,-22.321 -5.726,-2.301 -10.918,-5.133 -14.769,-9.101 -3.902,-3.938 -6.555,-8.821 -8.449,-13.731 -3.785,-9.91 -4.676,-19.777 -5.918,-28.019 -1.957,-16.75 -6.969,-26.438 -7.657,-26.008" /><path
         id="path278"
         style="fill:#f68260;fill-opacity:1;fill-rule:nonzero;stroke:none"
         d="m 473.09,698.391 c -1.418,0.238 -1.133,9.14 0.644,19.898 1.774,10.75 4.364,19.27 5.782,19.043 1.418,-0.242 1.132,-9.141 -0.645,-19.891 -1.769,-10.761 -4.359,-19.281 -5.781,-19.05" /><path
         id="path280"
         style="fill:#fafaf9;fill-opacity:1;fill-rule:nonzero;stroke:none"
         d="m 470.383,924.832 c 0,-11.672 9.453,-21.121 21.117,-21.121 11.664,0 21.117,9.449 21.117,21.121 0,11.66 -9.453,21.109 -21.117,21.109 -11.664,0 -21.117,-9.449 -21.117,-21.109" /><path
         id="path282"
         style="fill:#f68260;fill-opacity:1;fill-rule:nonzero;stroke:none"
         d="m 883.594,596.18 c 0.16,0.172 2.301,-1.539 6.164,-4.899 4.359,-3.89 9.844,-8.801 16.519,-14.781 14.684,-13.578 34.559,-31.937 58.2,-53.801 l 0.777,-0.707 -0.086,-1.121 c -2.625,-33.672 -5.711,-73.269 -9.012,-115.609 -4.562,-62.032 -8.133,-118.211 -10.121,-158.91 -0.883,-19.7 -1.617,-35.961 -2.164,-48.204 -0.426,-11.378 -0.824,-17.687 -1.183,-17.687 -0.364,0 -0.641,6.309 -0.84,17.719 -0.16,11.41 -0.071,27.929 0.511,48.32 1.047,40.781 4.036,97.07 8.602,159.141 3.125,42.519 6.527,82.23 9.762,115.64 l 0.687,-1.82 c -23.117,22.398 -42.558,41.238 -56.914,55.148 -6.336,6.34 -11.543,11.551 -15.68,15.692 -3.562,3.668 -5.382,5.711 -5.222,5.879" /><path
         id="path284"
         style="fill:#dadbd8;fill-opacity:1;fill-rule:nonzero;stroke:none"
         d="m 2554.82,3138.84 -355.44,176.3 C 2080.2,3574.93 1818,3755.46 1513.47,3755.46 1096.79,3755.46 759,3417.68 759,3000.99 c 0,-416.68 337.79,-754.46 754.47,-754.46 406.16,0 737.21,321 753.67,723.12 l 287.68,169.19" /><path
         id="path286"
         style="fill:#17282f;fill-opacity:1;fill-rule:nonzero;stroke:none"
         d="m 2195.57,3821.58 c 0,-10.83 -8.77,-19.61 -19.6,-19.61 -10.82,0 -19.6,8.78 -19.6,19.61 0,10.82 8.78,19.6 19.6,19.6 10.83,0 19.6,-8.78 19.6,-19.6" /><path
         id="path288"
         style="fill:#17282f;fill-opacity:1;fill-rule:nonzero;stroke:none"
         d="m 2274.01,3821.58 c 0,-10.83 -8.77,-19.61 -19.6,-19.61 -10.82,0 -19.6,8.78 -19.6,19.61 0,10.82 8.78,19.6 19.6,19.6 10.83,0 19.6,-8.78 19.6,-19.6" /><path
         id="path290"
         style="fill:#17282f;fill-opacity:1;fill-rule:nonzero;stroke:none"
         d="m 2352.26,3831.38 c 5.41,-9.38 2.19,-21.36 -7.18,-26.78 -9.38,-5.41 -21.36,-2.2 -26.78,7.17 -5.41,9.38 -2.2,21.37 7.18,26.78 9.37,5.41 21.36,2.2 26.78,-7.17" /><path
         id="path292"
         style="fill:#17282f;fill-opacity:1;fill-rule:nonzero;stroke:none"
         d="m 2255.63,4050.51 c 0,0.1 1.34,0.12 3.96,0.07 2.88,-0.08 6.73,-0.19 11.65,-0.33 2.55,-0.12 5.43,-0.12 8.58,-0.38 3.15,-0.44 6.58,-0.92 10.28,-1.44 3.72,-0.54 7.72,-1.11 11.98,-1.72 4.21,-1.05 8.68,-2.16 13.4,-3.33 18.82,-4.83 41.62,-13.11 64.93,-28.31 23.29,-14.95 47.5,-36.33 67.15,-65.39 19.28,-29.1 34.15,-65.7 38.09,-106.82 0.39,-10.29 1.63,-20.76 0.63,-31.4 -0.37,-5.3 -0.26,-10.7 -1.04,-16.05 -0.8,-5.36 -1.61,-10.75 -2.43,-16.18 -4.38,-21.44 -10.77,-43.42 -21.82,-63.89 -10.8,-20.5 -24.73,-40.03 -41.73,-57.41 -17.34,-17.04 -37.59,-31.81 -60.12,-43.2 -22.47,-11.48 -47.37,-19.4 -73.29,-22.49 -6.42,-1.27 -12.99,-1.27 -19.54,-1.66 -6.56,-0.43 -13.15,-0.67 -19.76,-0.37 -13.22,0.54 -26.48,2.2 -39.58,5 -28.46,6.07 -55.26,17.66 -78.79,33.17 l 2.39,-0.25 c -27.31,-10.96 -54.1,-21.71 -80.25,-32.21 l -4.75,-1.9 1.35,4.93 c 8.1,29.44 15.98,58.09 23.59,85.8 l 0.41,-2.12 c -22.53,29.93 -36.88,64.1 -42.83,98.04 -2.98,16.95 -4.25,33.88 -3.12,50.23 0.35,8.19 0.74,16.27 2.28,24.13 0.61,3.93 1.22,7.85 1.82,11.73 0.72,3.87 1.89,7.61 2.81,11.37 15.5,60.39 52.7,105 89.54,130.53 18.44,12.98 36.63,22.3 53.29,28.11 4.14,1.49 8.15,2.92 12,4.3 3.95,1 7.75,1.97 11.39,2.89 3.63,0.9 7.11,1.76 10.43,2.58 3.34,0.65 6.57,0.99 9.59,1.46 6.07,0.77 11.4,1.82 16.07,2.04 4.6,0.16 8.52,0.29 11.8,0.4 2.98,0.07 5.36,0.12 7.2,0.16 1.61,0.01 2.44,-0.01 2.44,-0.09 0,-0.06 -0.83,-0.18 -2.44,-0.33 -1.83,-0.14 -4.2,-0.33 -7.17,-0.56 -3.25,-0.23 -7.15,-0.49 -11.71,-0.8 -4.64,-0.36 -9.92,-1.52 -15.93,-2.41 -23.61,-4.33 -59.02,-13.75 -95.2,-40.2 -36.12,-25.55 -72.37,-69.73 -87.29,-129.09 -0.88,-3.71 -2.01,-7.38 -2.7,-11.17 -0.57,-3.82 -1.14,-7.67 -1.73,-11.54 -1.47,-7.71 -1.82,-15.64 -2.12,-23.69 -1.04,-16.05 0.26,-32.63 3.25,-49.24 5.95,-33.23 20.12,-66.64 42.24,-95.91 l 0.72,-0.95 -0.32,-1.17 c -7.55,-27.72 -15.38,-56.38 -23.41,-85.84 l -3.4,3.02 c 26.14,10.53 52.92,21.31 80.22,32.3 l 1.26,0.51 1.14,-0.75 c 23.02,-15.15 49.21,-26.46 77.03,-32.38 12.8,-2.74 25.76,-4.36 38.68,-4.9 6.47,-0.3 12.91,-0.06 19.32,0.35 6.41,0.39 12.84,0.37 19.11,1.62 25.34,2.99 49.68,10.72 71.67,21.91 22.05,11.1 41.89,25.52 58.89,42.15 16.68,16.98 30.35,36.06 40.99,56.11 10.89,20.01 17.2,41.51 21.58,62.52 0.82,5.32 1.64,10.6 2.45,15.84 0.78,5.25 0.69,10.54 1.08,15.75 1.02,10.43 -0.17,20.7 -0.49,30.8 -3.68,40.37 -18.08,76.4 -36.85,105.17 -19.14,28.73 -42.82,50.01 -65.67,65 -22.86,15.24 -45.3,23.7 -63.87,28.8 -4.67,1.24 -9.08,2.41 -13.23,3.52 -4.22,0.69 -8.18,1.34 -11.87,1.94 -3.65,0.61 -7.05,1.17 -10.17,1.68 -3.13,0.35 -5.98,0.43 -8.52,0.64 -4.89,0.35 -8.73,0.63 -11.59,0.84 -2.61,0.22 -3.95,0.38 -3.95,0.46" /><path
         id="path294"
         style="fill:#17282f;fill-opacity:1;fill-rule:nonzero;stroke:none"
         d="m 1970.43,3081.36 c 1.44,-0.03 1.5,-70.88 0.14,-158.23 -1.36,-87.39 -3.63,-158.19 -5.07,-158.17 -1.43,0.03 -1.5,70.86 -0.14,158.25 1.36,87.36 3.63,158.17 5.07,158.15" /><path
         id="path296"
         style="fill:#17282f;fill-opacity:1;fill-rule:nonzero;stroke:none"
         d="m 1679.72,3455.92 c 0.18,-0.02 0.07,-1.82 -0.31,-5.23 -0.26,-3.44 -1.14,-8.42 -2.51,-14.82 -2.82,-12.74 -8.88,-30.96 -21.04,-51.09 -12.28,-19.89 -31.08,-41.64 -57.67,-58.1 -26.36,-16.65 -60.69,-26.36 -96.67,-25.44 -35.98,1.12 -69.71,12.76 -95.1,30.88 -25.61,17.93 -43.14,40.72 -54.29,61.27 -10.99,20.79 -16.01,39.33 -18.11,52.2 -0.99,6.46 -1.58,11.5 -1.66,14.95 -0.18,3.42 -0.19,5.22 -0.01,5.23 0.56,0.05 0.96,-7.16 3.67,-19.79 2.67,-12.6 8.16,-30.67 19.34,-50.81 11.32,-19.92 28.76,-41.9 53.8,-59.11 24.79,-17.38 57.53,-28.52 92.51,-29.62 34.97,-0.87 68.29,8.39 94.02,24.33 25.97,15.77 44.62,36.72 57.05,55.96 12.31,19.48 18.81,37.2 22.2,49.63 3.42,12.47 4.23,19.64 4.78,19.56" /><path
         id="path298"
         style="fill:#17282f;fill-opacity:1;fill-rule:nonzero;stroke:none"
         d="m 1069.24,3060.01 c 1.44,0 2.64,-69.09 2.68,-154.29 0.04,-85.23 -1.09,-154.3 -2.54,-154.3 -1.43,0 -2.63,69.06 -2.67,154.3 -0.04,85.2 1.09,154.29 2.53,154.29" /><path
         id="path300"
         style="fill:#17282f;fill-opacity:1;fill-rule:nonzero;stroke:none"
         d="m 1364.51,3483.61 297.02,-0.12 c 0,0 268.54,-95.42 355.85,-162.36 87.3,-66.93 221.17,-538.38 221.17,-538.38 l -268.2,7.92 -20.13,-404.94 C 1675.5,2190.1 1345.85,2204.4 1091.21,2375.67 L 1071.33,2759 c 0,0 -147.912,4.35 -223.416,6.57 -75.504,2.22 -79.023,22.99 -79.023,22.99 0,0 171.707,451.09 224.089,538.39 45.65,76.09 311.11,144.04 371.53,156.66" /><path
         id="path302"
         style="fill:#fafaf9;fill-opacity:1;fill-rule:nonzero;stroke:none"
         d="m 2078.97,3213.16 c 0,0 -3.35,-2.65 -10.62,-6.18 -7.2,-3.57 -18.6,-7.77 -33.94,-9.37 -15.27,-1.72 -34.36,-0.71 -55.56,4.46 -21.31,4.89 -44.37,14.55 -68.96,26.33 -24.69,11.52 -51.35,25.41 -82.12,33.59 -30.69,8.27 -65.54,7.84 -100.13,-1.24 -34.72,-8.84 -69.1,-24.97 -103.39,-43.75 -34.29,-18.86 -69.08,-40.25 -107.32,-57.37 -38.08,-17.02 -78.82,-28.28 -118.74,-26.28 -39.85,1.68 -76.76,13.89 -109.93,28.12 -33.32,14.32 -63.34,31.06 -91.94,45.48 -28.54,14.53 -55.68,26.99 -81.51,35.38 -51.66,17.23 -97.27,16.08 -126.486,8.4 -14.715,-3.68 -25.621,-8.37 -32.773,-11.95 -3.617,-1.7 -6.196,-3.35 -8.039,-4.27 -1.824,-0.96 -2.778,-1.42 -2.824,-1.35 -0.047,0.08 0.808,0.68 2.542,1.81 1.762,1.06 4.27,2.87 7.836,4.75 7.043,3.89 17.93,8.94 32.75,12.98 29.414,8.38 75.704,10.13 128.124,-6.86 26.18,-8.26 53.63,-20.62 82.32,-35.03 28.77,-14.3 58.82,-30.86 91.88,-44.93 32.94,-13.99 69.35,-25.87 108.26,-27.44 38.91,-1.87 78.74,9.12 116.41,25.95 37.83,16.93 72.5,38.19 106.99,57.09 34.5,18.81 69.3,35.05 104.66,43.92 35.22,9.13 71.08,9.42 102.41,0.76 31.36,-8.55 58.05,-22.74 82.6,-34.43 24.48,-11.99 47.11,-21.73 68.08,-26.84 20.86,-5.36 39.61,-6.65 54.66,-5.26 15.12,1.26 26.44,5.08 33.71,8.31 7.32,3.18 10.9,5.5 11.05,5.22" /><path
         id="path304"
         style="fill:#fafaf9;fill-opacity:1;fill-rule:nonzero;stroke:none"
         d="m 2176.48,2987.23 c -0.18,-0.32 -4.24,2.56 -12.77,6.37 -8.49,3.77 -21.54,8.71 -39.16,10.67 -17.54,2.2 -39.53,1.29 -63.93,-4.73 -24.44,-5.93 -50.81,-17.85 -78.27,-33.7 -27.6,-15.71 -56.22,-35.74 -89.08,-54.07 -32.68,-17.9 -70.8,-35.14 -113.86,-36.09 -43,-1.59 -86.39,13.44 -128.13,31.93 -41.98,18.32 -84.3,40.59 -131.38,51.47 -47.14,10.57 -95.11,7.81 -139.97,0.19 -45.05,-7.54 -87.53,-19.85 -128.26,-30.58 -40.7,-10.83 -79.85,-20.17 -117.24,-24.59 -37.33,-4.44 -72.81,-4.19 -104.36,1.96 -63.367,12.37 -107.711,45.21 -129.644,73.15 -11.5,13.84 -17.321,26.67 -21.403,35.09 -1.543,4.21 -2.757,7.54 -3.675,10.05 -0.801,2.27 -1.168,3.44 -1.078,3.47 0.972,0.57 5.085,-19.75 27.718,-47.33 22.145,-27.19 66.196,-59.07 128.782,-70.81 31.09,-5.83 66.18,-5.88 103.14,-1.3 37.03,4.56 75.91,14.01 116.52,24.94 40.63,10.85 83.24,23.31 128.65,30.98 45.21,7.75 93.88,10.64 141.97,-0.14 48,-11.11 90.51,-33.6 132.29,-51.87 41.53,-18.5 84.1,-33.24 125.94,-31.81 41.84,0.76 79.39,17.46 111.91,35.08 32.66,18 61.46,37.87 89.34,53.47 27.75,15.76 54.52,27.59 79.4,33.34 24.82,5.83 47.13,6.45 64.87,3.91 17.83,-2.3 30.95,-7.62 39.36,-11.73 8.46,-4.16 12.32,-7.32 12.32,-7.32" /><path
         id="path306"
         style="fill:#fafaf9;fill-opacity:1;fill-rule:nonzero;stroke:none"
         d="m 1961.48,2616.51 c 0,0 -2.67,-1.93 -8.49,-4.07 -5.78,-2.17 -14.85,-4.34 -26.68,-4.22 -11.79,0.11 -26.22,2.67 -41.85,8.65 -15.69,5.88 -32.29,15.19 -50.78,24.68 -18.43,9.57 -39.61,18.16 -63.75,21.54 -24.01,3.66 -50.29,3.13 -77.33,-1.16 -54.5,-8.13 -110.19,-33.23 -169.79,-55.68 -29.87,-11.2 -59.91,-20.4 -89.57,-26.04 -29.64,-5.79 -58.67,-8.75 -86.38,-9.62 -55.49,-1.54 -105.3,6.01 -145.84,16.35 -40.64,10.27 -72.02,23.6 -93,33.85 -10.66,4.82 -18.44,9.53 -23.86,12.44 -2.44,1.4 -4.44,2.54 -6.07,3.48 -1.36,0.8 -2.03,1.25 -1.99,1.34 0.05,0.08 0.8,-0.22 2.25,-0.88 1.69,-0.81 3.77,-1.8 6.3,-3.01 5.56,-2.61 13.48,-7.02 24.23,-11.54 21.16,-9.64 52.57,-22.37 93.04,-32.11 40.37,-9.82 89.81,-16.92 144.8,-15.12 27.44,0.99 56.2,4.03 85.52,9.82 29.37,5.66 59.01,14.77 88.76,25.92 59.31,22.33 115.5,47.53 170.86,55.55 27.46,4.22 54.23,4.61 78.74,0.68 24.6,-3.62 46.36,-12.7 64.77,-22.54 18.5,-9.76 34.82,-19.2 50.14,-25.23 15.26,-6.14 29.33,-8.92 40.86,-9.35 11.64,-0.4 20.36,1.37 26.2,3.15 5.88,1.78 8.84,3.56 8.91,3.12" /><path
         id="path308"
         style="fill:#fafaf9;fill-opacity:1;fill-rule:nonzero;stroke:none"
         d="m 1952.9,2406.82 c -0.55,-0.49 -7.99,10.67 -26.39,25.6 -18.35,14.43 -49.33,32.39 -91.59,36.28 -20.92,2.14 -44.34,-0.09 -67.69,-8.05 -23.26,-8.44 -45.99,-22.59 -67.82,-40.04 -21.91,-17.43 -43.31,-37.79 -67.13,-57.24 -23.72,-19.35 -50.81,-37.73 -82.53,-47.28 -31.67,-9.43 -64.45,-9.92 -94.96,-5.97 -30.63,3.86 -59.37,11.69 -86.31,19.92 -53.93,16.46 -100.82,36.13 -141.62,47.6 -40.73,11.77 -75.52,14.22 -98.88,10.31 -23.41,-3.56 -35.31,-9.88 -35.58,-9.09 -0.03,0.08 0.7,0.45 2.17,1.1 1.77,0.74 3.94,1.65 6.59,2.77 2.87,1.31 6.54,2.61 11.02,3.71 4.41,1.33 9.55,2.71 15.49,3.52 23.56,4.58 59,2.65 100.17,-8.77 41.31,-11.13 88.24,-30.42 142.04,-46.56 26.85,-8.06 55.37,-15.71 85.54,-19.44 30.07,-3.83 62.06,-3.28 92.82,5.9 30.76,9.24 57.26,27.11 80.83,46.24 23.64,19.21 45.15,39.54 67.36,57.04 22.13,17.53 45.44,31.88 69.37,40.36 24.09,8.02 48.13,10.05 69.47,7.63 43.12,-4.45 74.33,-23.28 92.52,-38.37 18.24,-15.61 25.11,-27.17 25.11,-27.17" /><g
         id="g310"><g
           clip-path="url(#clipPath316)"
           id="g312"><path
             id="path318"
             style="fill:#a7aaa9;fill-opacity:1;fill-rule:nonzero;stroke:none"
             d="m 1062,2409.1 h 891.012 v 107.898 H 1062 Z" /></g></g><path
         id="path320"
         style="fill:#111d23;fill-opacity:1;fill-rule:nonzero;stroke:none"
         d="m 1942.48,2406.87 c -16.05,0 -35.84,15.41 -47.1,26.3 -10.49,10.13 -20.96,20.26 -31.45,30.39 27.68,-7.34 48.73,-20.25 62.58,-31.14 13.66,-11.08 21.28,-20.09 24.52,-23.79 -2.66,-1.22 -5.54,-1.76 -8.55,-1.76 m 8.9,2.23 c -2.9,4.11 -10.17,13.4 -23.59,24.89 -14.65,12.16 -37.75,26.74 -68.72,34.28 -31.86,30.79 -63.71,61.58 -95.56,92.37 -32.95,31.85 -71.21,65.84 -116.63,65.84 -1.18,0 -2.36,-0.02 -3.55,-0.07 -28.51,-1.12 -54.59,-15.95 -82.56,-21.55 -9.83,-1.97 -19.69,-2.77 -29.58,-2.77 -5.85,0 -11.72,0.28 -17.6,0.77 3.08,1.11 6.15,2.24 9.22,3.39 59.6,22.45 115.29,47.55 169.79,55.68 14.95,2.37 29.68,3.6 43.91,3.6 11.5,0 22.69,-0.8 33.42,-2.44 24.14,-3.38 45.32,-11.97 63.75,-21.54 18.49,-9.49 35.09,-18.8 50.78,-24.68 15.58,-5.96 29.96,-8.52 41.73,-8.65 12.17,-43.34 20.44,-88.75 28.44,-133.69 l -1.62,-32.63 -1.63,-32.8 m -863.87,37.91 -3.63,69.99 c 7.57,34.55 16.11,68.87 27.16,102.33 20.92,-10.03 51.24,-22.6 89.98,-32.39 23.09,-5.89 49.17,-10.87 77.6,-13.79 -20.18,-15.58 -39.21,-33.35 -57.88,-50.32 -38.34,-34.84 -83.24,-69.54 -133.23,-75.82 m 196.31,130.08 c -30.07,2.6 -57.63,7.52 -81.9,13.42 -38.71,9.32 -69.12,21.36 -90.21,30.83 4.76,14.28 9.99,28.4 15.8,42.32 27.78,66.47 70.18,128.74 130.26,168.48 63.02,41.68 138.75,54.89 215.31,54.89 32.92,0 66,-2.44 98.27,-6.12 88.6,-10.09 180.61,-30.06 248.23,-88.19 55.95,-48.09 86.16,-112.5 106.03,-182.44 -11.38,0.51 -25.18,3.31 -40.1,9.31 -15.32,6.03 -31.64,15.47 -50.14,25.23 -18.41,9.84 -40.17,18.92 -64.77,22.54 -11.45,1.83 -23.4,2.73 -35.68,2.73 -14,0 -28.43,-1.16 -43.06,-3.41 -55.36,-8.02 -111.55,-33.22 -170.86,-55.55 -6.49,-2.43 -12.98,-4.77 -19.45,-6.99 -12.82,1.62 -25.66,4 -38.52,6.37 -22.79,4.21 -45.62,8.43 -68.35,8.43 -7.52,0 -15.04,-0.47 -22.54,-1.54 -32.76,-4.7 -61.59,-20.4 -88.32,-40.31" /><path
         id="path322"
         style="fill:#bfc0be;fill-opacity:1;fill-rule:nonzero;stroke:none"
         d="m 1278.62,2573.15 c -28.43,2.92 -54.51,7.9 -77.6,13.79 -38.74,9.79 -69.06,22.36 -89.98,32.39 0.22,0.67 0.44,1.34 0.67,2.01 21.09,-9.47 51.5,-21.51 90.21,-30.83 24.27,-5.9 51.83,-10.82 81.9,-13.42 -1.74,-1.29 -3.48,-2.61 -5.2,-3.94 m 234.97,29.71 c -4.01,0.34 -8.03,0.77 -12.04,1.28 6.47,2.22 12.96,4.56 19.45,6.99 59.31,22.33 115.5,47.53 170.86,55.55 14.63,2.25 29.06,3.41 43.06,3.41 12.28,0 24.23,-0.9 35.68,-2.73 24.6,-3.62 46.36,-12.7 64.77,-22.54 18.5,-9.76 34.82,-19.2 50.14,-25.23 14.92,-6 28.72,-8.8 40.1,-9.31 0.2,-0.69 0.39,-1.38 0.58,-2.06 -11.77,0.13 -26.15,2.69 -41.73,8.65 -15.69,5.88 -32.29,15.19 -50.78,24.68 -18.43,9.57 -39.61,18.16 -63.75,21.54 -10.73,1.64 -21.92,2.44 -33.42,2.44 -14.23,0 -28.96,-1.23 -43.91,-3.6 -54.5,-8.13 -110.19,-33.23 -169.79,-55.68 -3.07,-1.15 -6.14,-2.28 -9.22,-3.39" /><path
         id="path324"
         style="fill:#bfc0be;fill-opacity:1;fill-rule:nonzero;stroke:none"
         d="m 1951.03,2408.63 c -3.24,3.7 -10.86,12.71 -24.52,23.79 -13.85,10.89 -34.9,23.8 -62.58,31.14 -1.62,1.57 -3.24,3.14 -4.86,4.71 30.97,-7.54 54.07,-22.12 68.72,-34.28 13.42,-11.49 20.69,-20.78 23.59,-24.89 v 0 l -0.01,-0.32 c -0.11,-0.05 -0.22,-0.1 -0.34,-0.15" /><path
         id="path326"
         style="fill:#f68260;fill-opacity:1;fill-rule:nonzero;stroke:none"
         d="m 2216.64,2783.39 c 2.59,-15.59 45.85,-265.4 38.05,-314.78 -7.8,-49.38 -20.79,-114.35 -77.97,-137.74 -57.17,-23.38 -140.34,7.8 -187.12,88.36 -46.78,80.57 -249.49,363.85 -249.49,363.85 l -150.73,18.19 v 252.09 l 288.47,-183.63 132.54,-120.28 -10.13,40.34 216.38,-6.4" /><path
         id="path328"
         style="fill:#33535f;fill-opacity:1;fill-rule:nonzero;stroke:none"
         d="m 1654.41,2709.16 h -227.56 c -18.68,0 -33.82,15.14 -33.82,33.82 v 410.56 c 0,18.68 15.14,33.82 33.82,33.82 h 227.56 c 18.68,0 33.82,-15.14 33.82,-33.82 v -410.56 c 0,-18.68 -15.14,-33.82 -33.82,-33.82" /><path
         id="path330"
         style="fill:#f36441;fill-opacity:1;fill-rule:nonzero;stroke:none"
         d="m 1865.15,2876.14 c 0.95,1.08 63.66,-53.12 140.04,-121.05 76.4,-67.94 137.54,-123.87 136.59,-124.95 -0.96,-1.07 -63.65,53.12 -140.06,121.06 -76.37,67.93 -137.53,123.87 -136.57,124.94" /><path
         id="path332"
         style="fill:#f68260;fill-opacity:1;fill-rule:nonzero;stroke:none"
         d="m 808.137,2769.25 c 0,0 -35.985,-310.54 -35.985,-345.92 0,-35.38 31.84,-120.28 120.286,-127.36 88.445,-7.07 201.652,191.04 201.652,191.04 l 183.96,279.48 -81.37,152.12 -159.08,-158.62 -229.463,9.26" /><path
         id="path334"
         style="fill:#f68260;fill-opacity:1;fill-rule:nonzero;stroke:none"
         d="m 1629.5,3000.46 -238.24,6.6 -194.58,-88.45 81.37,-152.12 142.37,20.75 c 0,0 83.3,13.56 88.44,18.68 9.59,9.55 17.95,39.08 23.68,64.71 5.84,26.1 2.91,53.38 -8.39,77.63 l -5.36,4.55 c 0,0 78.42,16.38 91.42,22.12 31.23,13.78 19.29,25.53 19.29,25.53" /><path
         id="path336"
         style="fill:#f36441;fill-opacity:1;fill-rule:nonzero;stroke:none"
         d="m 1196.68,2918.61 c 0.26,-0.24 -3.05,-4.25 -9.27,-11.29 -6.2,-7.05 -15.4,-17.04 -26.93,-29.24 -23.03,-24.43 -55.64,-57.41 -92.05,-93.39 -36.01,-35.7 -68.575,-67.98 -93.082,-92.27 -11.332,-11.33 -20.778,-20.75 -28.102,-28.07 -6.664,-6.61 -10.476,-10.14 -10.742,-9.9 -0.258,0.25 3.051,4.25 9.273,11.29 6.196,7.05 15.407,17.04 26.926,29.25 23.039,24.42 55.647,57.4 92.067,93.4 36,35.68 68.56,67.96 93.07,92.25 11.33,11.33 20.78,20.76 28.1,28.08 6.67,6.6 10.48,10.14 10.74,9.89" /><path
         id="path338"
         style="fill:#f36441;fill-opacity:1;fill-rule:nonzero;stroke:none"
         d="m 1431.44,2929.76 c -0.94,0.87 17.03,15.7 44.5,21.01 27.41,5.59 49.69,-1.25 49.15,-2.41 -0.23,-1.61 -22,2.68 -48.14,-2.69 -26.2,-5.03 -44.68,-17.31 -45.51,-15.91" /><path
         id="path340"
         style="fill:#f36441;fill-opacity:1;fill-rule:nonzero;stroke:none"
         d="m 1538.56,2903.19 c -0.49,-1.53 -19.11,5.86 -42.85,3.52 -23.79,-1.96 -40.77,-12.58 -41.53,-11.16 -0.99,0.87 15.74,14.2 41.06,16.34 25.29,2.44 44.14,-7.68 43.32,-8.7" /><path
         id="path342"
         style="fill:#f36441;fill-opacity:1;fill-rule:nonzero;stroke:none"
         d="m 1523.57,2859.33 c -0.54,-0.62 -3.16,1.13 -7.65,2.76 -4.47,1.66 -11.03,2.84 -18.19,1.9 -7.16,-0.99 -13.17,-3.86 -17.04,-6.65 -3.9,-2.75 -5.97,-5.14 -6.65,-4.68 -0.53,0.29 0.49,3.57 4.26,7.48 3.7,3.91 10.48,7.89 18.73,9.02 8.26,1.09 15.85,-0.95 20.46,-3.74 4.66,-2.77 6.51,-5.66 6.08,-6.09" /><path
         id="path344"
         style="fill:#f68260;fill-opacity:1;fill-rule:nonzero;stroke:none"
         d="m 1521.81,3334.07 v 0 c 78.97,4.56 140.44,70.32 139.72,149.42 -0.43,47.51 -0.98,88.23 -0.98,88.23 0,0 120.47,18.74 121.95,139.19 1.49,120.44 -19.39,397.02 -19.39,397.02 -139.43,59.92 -300.37,39.69 -420.62,-52.88 l -17.85,-13.74 40.73,-569.79 c 5.78,-80.88 75.48,-142.13 156.44,-137.45" /><path
         id="path346"
         style="fill:#f36441;fill-opacity:1;fill-rule:nonzero;stroke:none"
         d="m 1660.75,3573.46 c 0,0 -76.12,-6.19 -157.03,44.63 0,0 37.12,-86.68 157.31,-75.83 l -0.28,31.2" /><path
         id="path348"
         style="fill:#f68260;fill-opacity:1;fill-rule:nonzero;stroke:none"
         d="m 1339.48,3916.55 c -2.05,0.89 -82.76,24.48 -80.13,-57.87 2.63,-82.34 84.76,-62.71 84.83,-60.35 0.07,2.37 -4.7,118.22 -4.7,118.22" /><path
         id="path350"
         style="fill:#f36441;fill-opacity:1;fill-rule:nonzero;stroke:none"
         d="m 1318.03,3828.73 c -0.37,0.25 -1.41,-1.05 -3.8,-2.25 -2.33,-1.15 -6.36,-2.03 -10.71,-0.56 -8.8,2.92 -16.57,16.49 -17.44,31.32 -0.45,7.49 0.89,14.68 3.36,20.67 2.32,6.11 6.08,10.43 10.44,11.36 4.32,1.14 7.51,-1.38 8.59,-3.66 1.17,-2.27 0.7,-3.93 1.14,-4.06 0.24,-0.2 1.73,1.43 0.96,4.81 -0.39,1.63 -1.42,3.54 -3.41,5.06 -2.03,1.54 -4.96,2.27 -8,1.84 -6.33,-0.64 -11.86,-6.66 -14.58,-13.24 -3.06,-6.62 -4.74,-14.7 -4.23,-23.11 1.05,-16.58 10.05,-31.83 22.06,-34.89 5.84,-1.33 10.62,0.57 13.05,2.6 2.48,2.11 2.86,3.97 2.57,4.11" /><path
         id="path352"
         style="fill:#17282f;fill-opacity:1;fill-rule:nonzero;stroke:none"
         d="m 1723.62,3904.8 c 0.32,-9.08 -7.11,-16.84 -16.58,-17.35 -9.47,-0.51 -17.42,6.42 -17.74,15.51 -0.32,9.08 7.11,16.85 16.57,17.36 9.48,0.51 17.43,-6.44 17.75,-15.52" /><path
         id="path354"
         style="fill:#17282f;fill-opacity:1;fill-rule:nonzero;stroke:none"
         d="m 1740.32,3938.49 c -2.14,-2.24 -15.17,7.4 -33.68,7.35 -18.49,0.21 -32.07,-9.3 -34.08,-7.04 -0.98,1 1.19,5.05 7.1,9.36 5.82,4.29 15.76,8.46 27.28,8.41 11.54,-0.07 21.23,-4.31 26.81,-8.66 5.69,-4.36 7.62,-8.42 6.57,-9.42" /><path
         id="path356"
         style="fill:#17282f;fill-opacity:1;fill-rule:nonzero;stroke:none"
         d="m 1538.13,3902.69 c 0.32,-9.08 -7.11,-16.85 -16.59,-17.36 -9.46,-0.51 -17.41,6.43 -17.73,15.51 -0.32,9.08 7.11,16.86 16.57,17.36 9.48,0.51 17.43,-6.43 17.75,-15.51" /><path
         id="path358"
         style="fill:#17282f;fill-opacity:1;fill-rule:nonzero;stroke:none"
         d="m 1558.38,3935.04 c -2.14,-2.25 -15.19,7.39 -33.68,7.34 -18.49,0.22 -32.08,-9.3 -34.08,-7.03 -0.99,1 1.16,5.04 7.1,9.35 5.82,4.3 15.75,8.46 27.28,8.42 11.53,-0.07 21.23,-4.31 26.81,-8.66 5.67,-4.37 7.61,-8.42 6.57,-9.42" /><path
         id="path360"
         style="fill:#17282f;fill-opacity:1;fill-rule:nonzero;stroke:none"
         d="m 1625.55,3797.77 c -0.09,1.05 11.42,3.03 30.07,5.42 4.72,0.49 9.19,1.43 9.99,4.65 1.11,3.42 -0.86,8.51 -3.15,14.01 -4.45,11.44 -9.1,23.43 -13.98,35.99 -19.41,51.24 -33.47,93.37 -31.4,94.14 2.08,0.77 19.49,-40.15 38.9,-91.39 4.67,-12.64 9.14,-24.68 13.39,-36.2 1.79,-5.37 4.86,-11.47 2.45,-18.55 -1.27,-3.54 -4.74,-6.1 -7.77,-6.91 -3.03,-0.93 -5.69,-0.98 -8.02,-1.12 -18.77,-1.01 -30.41,-1.1 -30.48,-0.04" /><path
         id="path362"
         style="fill:#17282f;fill-opacity:1;fill-rule:nonzero;stroke:none"
         d="m 1571.08,3784.96 c 3.01,0.18 3.05,-19.92 20.24,-34.17 17.17,-14.31 38.59,-12.05 38.74,-14.86 0.28,-1.27 -4.77,-3.91 -13.81,-4.15 -8.86,-0.3 -21.81,2.54 -32.33,11.27 -10.5,8.74 -15,20.41 -15.69,28.65 -0.77,8.4 1.47,13.38 2.85,13.26" /><path
         id="path364"
         style="fill:#f03d5f;fill-opacity:1;fill-rule:nonzero;stroke:none"
         d="m 1563.15,4007.57 c -1.82,-5.03 -20.3,-2.65 -42.02,-5.27 -21.76,-2.17 -39.28,-8.53 -42.16,-4.02 -1.28,2.16 1.77,6.9 8.85,11.77 7.01,4.86 18.22,9.49 31.25,10.94 13.04,1.42 24.97,-0.65 32.88,-3.86 7.98,-3.21 11.99,-7.17 11.2,-9.56" /><path
         id="path366"
         style="fill:#f03d5f;fill-opacity:1;fill-rule:nonzero;stroke:none"
         d="m 1733.51,3992.05 c -3.26,-4.2 -16.01,0.17 -31.34,0.37 -15.32,0.74 -28.31,-2.83 -31.3,1.58 -1.31,2.13 0.73,6.34 6.41,10.32 5.58,3.97 14.94,7.2 25.47,6.89 10.54,-0.33 19.67,-4.14 25,-8.45 5.42,-4.32 7.2,-8.65 5.76,-10.71" /><path
         id="path368"
         style="fill:#f03d5f;fill-opacity:1;fill-rule:nonzero;stroke:none"
         d="m 1821.79,4183.96 c 1.29,14.93 -4.27,30.96 -16.42,39.73 -12.15,8.77 -30.99,8.22 -40.86,-3.05 5.66,20.11 -10.79,43.3 -31.64,44.63 -19.64,1.25 -36.4,-13.59 -55.37,-18.8 -18.54,-5.08 -38.42,-0.69 -56.25,6.49 -17.82,7.18 -34.48,17.09 -52.52,23.68 -37.65,13.75 -80.68,12.02 -117.1,-4.7 -36.42,-16.73 -65.79,-48.23 -79.9,-85.74 -26.34,8.23 -56.27,-5.15 -72.52,-27.46 -16.24,-22.31 -20.41,-51.61 -17.17,-79.02 2.18,-18.52 7.54,-36.42 13.77,-54.05 -0.01,-1.55 -0.16,-3.07 -0.13,-4.62 1.25,-66.23 8.73,-144.01 36.99,-144.44 49.25,-0.76 37.52,92.03 37.52,92.03 60.44,23.35 37.92,113.91 53.03,127.65 15.11,13.73 46.73,45.66 173.27,-19.02 49.14,-25.11 114.47,-24.33 150.14,-16.24 1.05,0.22 2.11,0.39 3.15,0.64 l 0.73,0.15 1.04,0.42 c 11.37,2.96 22.34,7.37 32.46,13.77 11.46,7.25 21.88,17.07 26.74,29.73 4.86,12.67 3.03,28.48 -6.9,37.71 9.34,11.72 16.65,25.59 17.94,40.51" /><path
         id="path370"
         style="fill:#17282f;fill-opacity:1;fill-rule:nonzero;stroke:none"
         d="m 4292.89,186.152 -1297.16,5.989 c -156.01,0.718 -281.92,127.75 -281.26,283.75 l 13.74,3252.029 c 0.67,156.1 127.77,282.09 283.87,281.37 l 1297.17,-5.99 c 156.01,-0.72 281.91,-127.75 281.26,-283.76 L 4576.76,467.512 c -0.67,-156.102 -127.77,-282.09 -283.87,-281.36" /><path
         id="path372"
         style="fill:#fafaf9;fill-opacity:1;fill-rule:nonzero;stroke:none"
         d="m 4307.4,3891.07 -251.5,1.15 c -33.72,0.16 -61.19,-28.3 -61.33,-63.55 l -0.2,-45.62 c -0.14,-35.26 -27.61,-63.72 -61.34,-63.57 l -490.23,2.27 c -33.72,0.15 -60.94,28.87 -60.79,64.13 l 0.19,45.62 c 0.15,35.25 -27.08,63.96 -60.8,64.12 l -88.46,0.41 -220.12,1.01 c -109.32,0.5 -198.34,-87.73 -198.8,-197.05 L 2800.6,525.781 c -0.46,-109.281 87.72,-198.242 196.98,-198.742 l 1294.58,-5.98 c 109.3,-0.508 198.33,87.73 198.8,197.062 l 13.42,3174.219 c 0.45,109.26 -87.72,198.22 -196.98,198.73" /><path
         id="path374"
         style="fill:#f03d5f;fill-opacity:1;fill-rule:nonzero;stroke:none"
         d="m 3117.43,3389.17 c 0,-34.36 -27.85,-62.21 -62.21,-62.21 -34.36,0 -62.21,27.85 -62.21,62.21 0,34.36 27.85,62.21 62.21,62.21 34.36,0 62.21,-27.85 62.21,-62.21" /><path
         id="path376"
         style="fill:#f03d5f;fill-opacity:1;fill-rule:nonzero;stroke:none"
         d="m 3233.48,3435.95 h 1043.88 c 31.91,0 57.77,-25.87 57.77,-57.77 v -158.14 c 0,-31.9 -25.86,-57.76 -57.77,-57.76 h -934.95 c -31.9,0 -57.77,25.86 -57.77,57.76 v 169.86 l -51.16,46.05" /><path
         id="path378"
         style="fill:#ffffff;fill-opacity:1;fill-rule:nonzero;stroke:none"
         d="m 4167.75,3337.81 c 0,-1.44 -160.28,-2.6 -357.96,-2.6 -197.73,0 -357.98,1.16 -357.98,2.6 0,1.44 160.25,2.6 357.98,2.6 197.68,0 357.96,-1.16 357.96,-2.6" /><path
         id="path380"
         style="fill:#ffffff;fill-opacity:1;fill-rule:nonzero;stroke:none"
         d="m 4167.75,3273.37 c 0,-1.44 -160.28,-2.6 -357.96,-2.6 -197.73,0 -357.98,1.16 -357.98,2.6 0,1.44 160.25,2.6 357.98,2.6 197.68,0 357.96,-1.16 357.96,-2.6" /><path
         id="path382"
         style="fill:#f03d5f;fill-opacity:1;fill-rule:nonzero;stroke:none"
         d="m 3117.43,1858.58 c 0,-34.37 -27.85,-62.22 -62.21,-62.22 -34.36,0 -62.21,27.85 -62.21,62.22 0,34.36 27.85,62.21 62.21,62.21 34.36,0 62.21,-27.85 62.21,-62.21" /><path
         id="path384"
         style="fill:#f03d5f;fill-opacity:1;fill-rule:nonzero;stroke:none"
         d="m 3233.48,1905.35 h 1043.88 c 31.91,0 57.77,-25.86 57.77,-57.77 v -158.13 c 0,-31.91 -25.86,-57.76 -57.77,-57.76 h -934.95 c -31.9,0 -57.77,25.85 -57.77,57.76 v 169.85 l -51.16,46.05" /><path
         id="path386"
         style="fill:#ffffff;fill-opacity:1;fill-rule:nonzero;stroke:none"
         d="m 4167.75,1807.21 c 0,-1.43 -160.28,-2.6 -357.96,-2.6 -197.73,0 -357.98,1.17 -357.98,2.6 0,1.44 160.25,2.61 357.98,2.61 197.68,0 357.96,-1.17 357.96,-2.61" /><path
         id="path388"
         style="fill:#ffffff;fill-opacity:1;fill-rule:nonzero;stroke:none"
         d="m 4167.75,1742.78 c 0,-1.45 -160.28,-2.61 -357.96,-2.61 -197.73,0 -357.98,1.16 -357.98,2.61 0,1.43 160.25,2.6 357.98,2.6 197.68,0 357.96,-1.17 357.96,-2.6" /><path
         id="path390"
         style="fill:#33535f;fill-opacity:1;fill-rule:nonzero;stroke:none"
         d="m 4271.03,2910.98 c 0,-33.77 -27.38,-61.14 -61.14,-61.14 -33.77,0 -61.13,27.37 -61.13,61.14 0,33.76 27.36,61.13 61.13,61.13 33.76,0 61.14,-27.37 61.14,-61.13" /><path
         id="path392"
         style="fill:#33535f;fill-opacity:1;fill-rule:nonzero;stroke:none"
         d="m 4062.48,2996.81 h -977.71 c -29.88,0 -54.11,-24.22 -54.11,-54.1 V 2794.6 c 0,-29.89 24.23,-54.11 54.11,-54.11 h 875.69 c 29.87,0 54.1,24.22 54.1,54.11 v 159.09 l 47.92,43.12" /><path
         id="path394"
         style="fill:#ffffff;fill-opacity:1;fill-rule:nonzero;stroke:none"
         d="m 3187.43,2904.89 c 0,1.44 150.12,2.61 335.27,2.61 185.2,0 335.29,-1.17 335.29,-2.61 0,-1.43 -150.09,-2.6 -335.29,-2.6 -185.15,0 -335.27,1.17 -335.27,2.6" /><path
         id="path396"
         style="fill:#ffffff;fill-opacity:1;fill-rule:nonzero;stroke:none"
         d="m 3187.43,2844.54 c 0,1.44 150.12,2.6 335.27,2.6 185.2,0 335.29,-1.16 335.29,-2.6 0,-1.44 -150.09,-2.6 -335.29,-2.6 -185.15,0 -335.27,1.16 -335.27,2.6" /><path
         id="path398"
         style="fill:#17282f;fill-opacity:1;fill-rule:nonzero;stroke:none"
         d="m 2993.01,2480.11 c 0,-34.36 27.85,-62.21 62.21,-62.21 34.36,0 62.21,27.85 62.21,62.21 0,34.35 -27.85,62.2 -62.21,62.2 -34.36,0 -62.21,-27.85 -62.21,-62.2" /><path
         id="path400"
         style="fill:#17282f;fill-opacity:1;fill-rule:nonzero;stroke:none"
         d="M 3272.29,2570.21 H 4250 c 29.87,0 54.1,-24.23 54.1,-54.11 v -148.11 c 0,-29.88 -24.23,-54.1 -54.1,-54.1 h -875.69 c -29.89,0 -54.1,24.22 -54.1,54.1 v 159.09 l -47.92,43.13" /><path
         id="path402"
         style="fill:#ffffff;fill-opacity:1;fill-rule:nonzero;stroke:none"
         d="m 4147.33,2478.29 c 0,-1.44 -150.12,-2.6 -335.26,-2.6 -185.2,0 -335.3,1.16 -335.3,2.6 0,1.44 150.1,2.6 335.3,2.6 185.14,0 335.26,-1.16 335.26,-2.6" /><path
         id="path404"
         style="fill:#ffffff;fill-opacity:1;fill-rule:nonzero;stroke:none"
         d="m 4147.33,2417.94 c 0,-1.44 -150.12,-2.61 -335.26,-2.61 -185.2,0 -335.3,1.17 -335.3,2.61 0,1.44 150.1,2.6 335.3,2.6 185.14,0 335.26,-1.16 335.26,-2.6" /><path
         id="path406"
         style="fill:#17282f;fill-opacity:1;fill-rule:nonzero;stroke:none"
         d="m 4225.37,2027.42 h -235.92 c -22.05,0 -39.93,17.88 -39.93,39.93 v 85.27 c 0,22.05 17.88,39.93 39.93,39.93 h 235.92 c 22.05,0 39.92,-17.88 39.92,-39.93 v -85.27 c 0,-22.05 -17.87,-39.93 -39.92,-39.93" /><path
         id="path408"
         style="fill:#ffffff;fill-opacity:1;fill-rule:nonzero;stroke:none"
         d="m 4209.06,2109.99 c 0,-1.44 -41.49,-2.61 -92.66,-2.61 -51.19,0 -92.69,1.17 -92.69,2.61 0,1.43 41.5,2.6 92.69,2.6 51.17,0 92.66,-1.17 92.66,-2.6" /><path
         id="path410"
         style="fill:#dadbd8;fill-opacity:1;fill-rule:nonzero;stroke:none"
         d="m 3074.73,940.211 h -154.61 v 154.609 h 154.61 V 940.211" /><path
         id="path412"
         style="fill:#dadbd8;fill-opacity:1;fill-rule:nonzero;stroke:none"
         d="m 3258.65,940.211 h -154.62 v 154.609 h 154.62 V 940.211" /><path
         id="path414"
         style="fill:#dadbd8;fill-opacity:1;fill-rule:nonzero;stroke:none"
         d="m 3442.57,940.211 h -154.62 v 154.609 h 154.62 V 940.211" /><path
         id="path416"
         style="fill:#dadbd8;fill-opacity:1;fill-rule:nonzero;stroke:none"
         d="m 3626.48,940.211 h -154.6 v 154.609 h 154.6 V 940.211" /><path
         id="path418"
         style="fill:#dadbd8;fill-opacity:1;fill-rule:nonzero;stroke:none"
         d="m 3810.41,940.211 h -154.62 v 154.609 h 154.62 V 940.211" /><path
         id="path420"
         style="fill:#dadbd8;fill-opacity:1;fill-rule:nonzero;stroke:none"
         d="m 3081.73,551.77 h -161.61 v 161.609 h 161.61 V 551.77" /><path
         id="path422"
         style="fill:#dadbd8;fill-opacity:1;fill-rule:nonzero;stroke:none"
         d="m 3892.05,551.359 h -779.7 v 161.61 h 779.7 v -161.61" /><path
         id="path424"
         style="fill:#17282f;fill-opacity:1;fill-rule:nonzero;stroke:none"
         d="m 4364.05,1139.74 c 0,0 -0.14,4.03 -0.23,11.72 -0.06,7.8 -0.16,19.18 -0.28,34.13 -0.14,30.08 -0.37,74.42 -0.66,132.16 l 1.17,-1.17 c -261.4,-0.26 -810.16,-0.8 -1443.85,-1.43 h -0.08 l 2.6,2.6 c -0.01,-60.98 -0.01,-121.16 -0.01,-178 l -2.59,2.58 c 406.25,-0.44 766.85,-0.83 1026.04,-1.11 129.7,-0.33 233.99,-0.59 306.03,-0.77 35.94,-0.15 63.79,-0.27 82.84,-0.36 9.38,-0.07 16.56,-0.12 21.56,-0.17 4.87,-0.05 7.46,-0.18 7.46,-0.18 0,0 -2.34,-0.12 -7.11,-0.17 -4.92,-0.04 -11.99,-0.1 -21.23,-0.18 -18.91,-0.08 -46.58,-0.2 -82.26,-0.35 -71.9,-0.18 -175.98,-0.44 -305.41,-0.76 -259.67,-0.29 -620.94,-0.68 -1027.92,-1.13 h -2.59 v 2.6 c -0.01,56.84 -0.01,117.02 -0.02,178 v 2.61 h 2.61 0.08 c 633.69,-0.64 1182.45,-1.19 1443.85,-1.44 h 1.17 l -0.01,-1.17 c -0.28,-58.04 -0.5,-102.61 -0.65,-132.83 -0.13,-14.85 -0.21,-26.14 -0.28,-33.88 -0.08,-7.57 -0.23,-11.3 -0.23,-11.3" /><path
         id="path426"
         style="fill:#f03d5f;fill-opacity:1;fill-rule:nonzero;stroke:none"
         d="m 4263.6,1212.62 h -7.36 c -8.18,0 -14.82,6.64 -14.82,14.83 v 43.88 c 0,8.19 6.64,14.82 14.82,14.82 h 7.36 c 8.19,0 14.82,-6.63 14.82,-14.82 v -43.88 c 0,-8.19 -6.63,-14.83 -14.82,-14.83" /><path
         id="path428"
         style="fill:#f03d5f;fill-opacity:1;fill-rule:nonzero;stroke:none"
         d="m 4304.75,1227.15 c 0,-0.55 -4.35,-1.06 -11.8,-1.48 l 1.46,1.36 c -0.41,-6.19 -1.98,-14.52 -7.47,-22.87 -2.75,-4.12 -6.72,-8.07 -11.85,-10.69 -5.15,-2.65 -11.21,-3.52 -17.23,-3.28 -11.82,0.21 -21.87,7.34 -27.27,14.98 -5.51,7.78 -8,15.53 -9.09,21.68 l 1.55,-1.27 c -8.62,0.43 -13.62,0.98 -13.62,1.57 0,0.59 5,1.14 13.62,1.57 l 1.16,0.05 0.38,-1.33 c 1.55,-5.43 4.46,-12.71 9.69,-19.46 5.24,-6.66 13.63,-12.37 23.85,-12.58 5.25,-0.21 10.43,0.47 14.72,2.6 4.31,2.09 7.76,5.29 10.33,8.8 5.16,7.09 7.3,14.92 8.28,20.46 l 0.27,1.44 1.22,-0.07 c 7.45,-0.42 11.8,-0.93 11.8,-1.48" /><path
         id="path430"
         style="fill:#f03d5f;fill-opacity:1;fill-rule:nonzero;stroke:none"
         d="m 4259.92,1192.65 c 1.44,0 2.6,-5.08 2.6,-11.34 0,-6.27 -1.16,-11.35 -2.6,-11.35 -1.44,0 -2.61,5.08 -2.61,11.35 0,6.26 1.17,11.34 2.61,11.34" /><path
         id="path432"
         style="fill:#dadbd8;fill-opacity:1;fill-rule:nonzero;stroke:none"
         d="M 4080,551.77 H 3918.39 V 713.379 H 4080 V 551.77" /><path
         id="path434"
         style="fill:#f03d5f;fill-opacity:1;fill-rule:nonzero;stroke:none"
         d="m 4364.05,551.77 h -253.42 v 161.609 h 253.42 V 551.77" /><path
         id="path436"
         style="fill:#dadbd8;fill-opacity:1;fill-rule:nonzero;stroke:none"
         d="M 3996.21,940.211 H 3841.6 v 154.609 h 154.61 V 940.211" /><path
         id="path438"
         style="fill:#dadbd8;fill-opacity:1;fill-rule:nonzero;stroke:none"
         d="m 4180.14,940.211 h -154.62 v 154.609 h 154.62 V 940.211" /><path
         id="path440"
         style="fill:#dadbd8;fill-opacity:1;fill-rule:nonzero;stroke:none"
         d="m 4364.05,940.211 h -154.62 v 154.609 h 154.62 V 940.211" /><path
         id="path442"
         style="fill:#dadbd8;fill-opacity:1;fill-rule:nonzero;stroke:none"
         d="m 3074.73,749.492 h -154.61 v 154.617 h 154.61 V 749.492" /><path
         id="path444"
         style="fill:#dadbd8;fill-opacity:1;fill-rule:nonzero;stroke:none"
         d="m 3258.65,749.492 h -154.62 v 154.617 h 154.62 V 749.492" /><path
         id="path446"
         style="fill:#dadbd8;fill-opacity:1;fill-rule:nonzero;stroke:none"
         d="m 3442.57,749.492 h -154.62 v 154.617 h 154.62 V 749.492" /><path
         id="path448"
         style="fill:#dadbd8;fill-opacity:1;fill-rule:nonzero;stroke:none"
         d="m 3626.48,749.492 h -154.6 v 154.617 h 154.6 V 749.492" /><path
         id="path450"
         style="fill:#dadbd8;fill-opacity:1;fill-rule:nonzero;stroke:none"
         d="m 3810.41,749.492 h -154.62 v 154.617 h 154.62 V 749.492" /><path
         id="path452"
         style="fill:#dadbd8;fill-opacity:1;fill-rule:nonzero;stroke:none"
         d="M 3996.21,749.492 H 3841.6 v 154.617 h 154.61 V 749.492" /><path
         id="path454"
         style="fill:#dadbd8;fill-opacity:1;fill-rule:nonzero;stroke:none"
         d="m 4180.14,749.492 h -154.62 v 154.617 h 154.62 V 749.492" /><path
         id="path456"
         style="fill:#dadbd8;fill-opacity:1;fill-rule:nonzero;stroke:none"
         d="m 4364.05,749.492 h -154.62 v 154.617 h 154.62 V 749.492" /><path
         id="path458"
         style="fill:#f03d5f;fill-opacity:1;fill-rule:nonzero;stroke:none"
         d="m 3612.7,1451.48 c -0.07,-14.6 -12.07,-26.39 -26.82,-26.33 -14.76,0.08 -26.66,11.98 -26.6,26.58 0.07,14.6 12.07,26.4 26.81,26.32 14.76,-0.06 26.66,-11.95 26.61,-26.57" /><path
         id="path460"
         style="fill:#f03d5f;fill-opacity:1;fill-rule:nonzero;stroke:none"
         d="m 3695.46,1451.1 c -0.06,-14.6 -12.07,-26.39 -26.82,-26.32 -14.74,0.06 -26.66,11.96 -26.6,26.57 0.06,14.6 12.07,26.39 26.83,26.33 14.74,-0.07 26.65,-11.96 26.59,-26.58" /><path
         id="path462"
         style="fill:#f03d5f;fill-opacity:1;fill-rule:nonzero;stroke:none"
         d="m 3778.22,1450.72 c -0.06,-14.6 -12.07,-26.4 -26.81,-26.32 -14.76,0.06 -26.66,11.96 -26.61,26.57 0.07,14.61 12.08,26.39 26.83,26.33 14.75,-0.07 26.66,-11.96 26.59,-26.58" /></g></g></svg>